<svg width="117" height="23" fill="none" xmlns="http://www.w3.org/2000/svg"><path fill-rule="evenodd" clip-rule="evenodd" d="M115.15 19.54c.795 0 1.428.627 1.428 1.414 0 .796-.633 1.415-1.435 1.415-.794 0-1.439-.619-1.439-1.415 0-.787.645-1.415 1.439-1.415h.007zm-91.94 2.64h-3.934l-.168-.964a9.261 9.261 0 01-4.457 1.121c-2.887 0-4.423-1.868-4.423-4.453 0-3.05 1.792-4.14 4.998-4.14h3.26v-.657c0-1.557-.181-2.013-2.659-2.013h-4.023l.395-3.82h4.413c5.414 0 6.602 1.662 6.602 5.865v9.06h-.004zm58.617-5.99c0 3.112-1.324 6.131-6.867 6.131-5.548 0-6.898-3.019-6.898-6.132v-3.007c0-3.113 1.348-6.132 6.896-6.132 5.556 0 6.886 3.02 6.886 6.134v3.007l-.017-.002zm15.115 0c0 3.112-1.326 6.131-6.867 6.131-5.55 0-6.9-3.019-6.9-6.132v-3.007c0-3.113 1.348-6.132 6.898-6.132 5.538 0 6.867 3.02 6.867 6.134v3.007l.002-.002zm18.201 3.572a1.18 1.18 0 00-1.166 1.19c0 .672.529 1.2 1.173 1.2.647.017 1.166-.513 1.166-1.186 0-.654-.519-1.188-1.166-1.188h-.007v-.016zM7.079 22.15H2.36V11.078H0v-3.82h2.359V4.966C2.359 1.854 3.689 0 7.474 0h3.151v3.82H8.658c-1.476 0-1.574.531-1.574 1.529l-.018 1.91h3.57l-.419 3.82h-3.15v11.072l.011-.001zm107.793-.372h-.259v-1.58c.146-.017.273-.035.474-.035.249 0 .411.048.51.117.098.07.145.177.145.327 0 .207-.138.333-.309.384v.013c.138.024.236.148.273.382.036.244.073.34.098.389h-.273c-.036-.05-.078-.195-.109-.4-.037-.203-.146-.278-.35-.278h-.182v.68l-.018.001zm0-.875h.187c.213 0 .394-.076.394-.27 0-.139-.102-.277-.394-.277-.084 0-.145.005-.187.013v.534zm-99.924-3.078c0 .835.408 1.268 1.304 1.268.965 0 1.534-.304 2.237-.619v-1.671h-2.106c-.998 0-1.435.177-1.435 1.02v.002zm45.068-6.961c-.965 0-1.658.3-2.36.619v7.04c.673.061 1.06.061 1.7.061 2.314 0 2.627-1.026 2.627-2.459v-3.367c0-1.054-.364-1.905-1.967-1.905v.01zm14.928 0c-1.607 0-2.163.848-2.163 1.892v3.856c0 1.061.556 1.91 2.162 1.91 1.603 0 2.16-.849 2.16-1.91v-3.856c0-1.054-.564-1.905-2.167-1.905l.007.012zm-38.357.477c-2.448-.407-3.15-.495-4.328-.495-2.116 0-2.756.447-2.756 2.193v3.29c0 1.742.638 2.193 2.756 2.193 1.179 0 1.88-.088 4.328-.495v3.721c-2.144.469-3.54.591-4.721.591-5.067 0-7.082-2.582-7.082-6.314v-2.671c0-3.74 2.015-6.327 7.082-6.327 1.18 0 2.578.124 4.721.593v3.721zm14.773 4.687h-8.656v.3c0 1.743.638 2.194 2.754 2.194 1.904 0 3.06-.088 5.505-.495v3.721c-2.355.469-3.583.591-5.896.591-5.064 0-7.068-2.582-7.068-6.314v-3.06c0-3.267 1.494-5.943 6.685-5.943 5.2 0 6.685 2.644 6.685 5.943v3.06l-.009.003zm38.697-5.164c-1.603 0-2.159.848-2.159 1.897v3.861c0 1.062.556 1.91 2.159 1.91 1.603 0 2.168-.848 2.168-1.91V12.76c0-1.056-.565-1.907-2.168-1.907v.01zm22.399 11.284h-5.113l-4.328-7.004v7.004h-4.718V1.141l4.718-.76v13.521l4.326-6.65h5.101l-4.727 7.252 4.723 7.64.018.004zM44.671 10.474c-1.603 0-1.967.85-1.967 1.91v.59h3.935v-.595c0-1.043-.365-1.9-1.968-1.9v-.005zM66.705 16.1c0 3.608-1.075 6.244-7.523 6.244-2.325 0-3.69-.202-6.259-.584V1.137l4.718-.76v7.21c1.02-.367 2.34-.553 3.543-.553 4.717 0 5.5 2.052 5.5 5.347v3.732l.02-.014z" fill="#D6DAE5"/></svg>