<svg width="117" height="25" fill="none" xmlns="http://www.w3.org/2000/svg"><path fill-rule="evenodd" clip-rule="evenodd" d="M81.923 15.748c-1.694-.425-1.694-.442-1.694-1.344 0-.608.062-.898 1.457-.898.958 0 2.368.16 3.275.313a.462.462 0 00.354-.088.44.44 0 00.182-.31l.258-2.02a.464.464 0 00-.364-.496c-1.056-.235-2.514-.389-3.716-.389-4.207 0-5.064 1.539-5.064 3.85 0 2.541.483 3.396 3.702 4.157 2.12.495 2.12.862 2.12 1.472 0 .802-.073 1.08-1.457 1.08-1.119 0-2.412-.169-3.549-.464a.462.462 0 00-.576.354l-.347 1.928a.446.446 0 00.31.507c1.242.39 3.023.655 4.331.655 4.07 0 4.9-1.663 4.9-4.14 0-2.74-.499-3.254-4.127-4.186l.005.018zm-10.552 0c-1.694-.425-1.694-.442-1.694-1.344 0-.608.062-.898 1.457-.898.956 0 2.368.16 3.275.313a.463.463 0 00.354-.088.44.44 0 00.182-.31l.258-2.02a.452.452 0 00-.355-.496c-1.038-.235-2.495-.389-3.698-.389-4.196 0-5.063 1.539-5.063 3.85 0 2.541.491 3.396 3.708 4.157 2.12.495 2.12.862 2.12 1.472 0 .802-.072 1.08-1.457 1.08-1.12 0-2.413-.169-3.552-.464a.462.462 0 00-.576.354l-.364 1.919a.451.451 0 00.316.507c1.238.39 3.02.655 4.33.655 4.061 0 4.9-1.663 4.9-4.139 0-2.741-.507-3.255-4.136-4.187l-.005.018v.01zM34.02 6.457a.458.458 0 00-.442-.315h-4.314c-.2 0-.382.126-.442.312l-5.444 16.749a.442.442 0 00.069.398.469.469 0 00.373.183h2.97a.465.465 0 00.444-.318l3.75-12.328s.1-.31.437-.31c.346 0 .437.319.437.319l1.74 5.845h-2.332c-.2 0-.383.135-.437.327l-.674 2.317a.486.486 0 00.073.39.498.498 0 00.382.176h3.98l1.048 3.266a.456.456 0 00.437.313h2.969c.146 0 .288-.07.375-.185a.434.434 0 00.073-.402l-5.45-16.767-.017.028-.006.002zm56.74 4.328h-2.73c-.255 0-.461.2-.461.448v12.134a.46.46 0 00.463.452h2.732c.255 0 .462-.2.462-.45V11.237c0-.248-.2-.445-.456-.445l-.009-.007.001-.001zm-38.744-4.97h-2.732c-.255 0-.461.2-.461.448v17.104a.46.46 0 00.462.452h2.733c.255 0 .46-.2.46-.45V6.266c0-.247-.2-.444-.455-.444l-.007-.007v-.001zm61.422 4.709c-1.443 0-3.415.485-5.082 1.245l-.2-.654a.453.453 0 00-.442-.323h-2.022c-.255 0-.464.2-.464.448v12.134c0 .247.2.45.455.45h2.732c.255 0 .465-.2.465-.45v-8.402c.984-.486 2.368-.99 3.19-.99.616 0 .844.224.844.822v8.56c0 .252.209.452.464.452h2.732c.255 0 .461-.2.461-.451v-8.908c0-2.605-1.056-3.927-3.135-3.927h-.001l.003-.006zM10.167 17.738a.477.477 0 00-.355-.146.502.502 0 00-.412.226c-1.275 1.893-1.93 3.68-2.022 5.474a.514.514 0 00.142.363c.09.106.227.16.364.16h3.027a.492.492 0 00.501-.443c.073-.867.346-1.733.856-2.636a.67.67 0 00-.063-.736c-.501-.637-1.114-1.309-2.025-2.234l-.004-.018-.009-.01zm50.71 1.29v1.564a4.784 4.784 0 01-2.26.583c-.847 0-1.11-.248-1.11-1.079 0-.796.163-1.047 1.165-1.047h2.204v-.02zm38.816 0v1.564a4.849 4.849 0 01-2.259.583c-.847 0-1.11-.248-1.11-1.079 0-.796.163-1.047 1.165-1.047h2.204v-.02zm-52.724 2.199a.443.443 0 00-.2-.31.468.468 0 00-.367-.062 5.92 5.92 0 01-1.311.18c-.674 0-.984-.283-.984-.92v-6.429h2.65a.458.458 0 00.463-.45v-2.008a.46.46 0 00-.465-.451h-2.64V7.69a.469.469 0 00-.528-.447l-2.733.372a.452.452 0 00-.401.442v2.724h-1.491c-.255 0-.463.2-.463.448v2.017a.47.47 0 00.474.453h1.486v6.836c0 2.35 1.27 3.537 3.776 3.537.71 0 1.924-.159 2.715-.424a.448.448 0 00.304-.495l-.296-1.92.009-.013.002.006zM59.044 10.53c-1.384 0-3.067.212-4.29.54a.451.451 0 00-.345.504l.315 1.928a.454.454 0 00.191.294c.102.07.23.088.354.07 1.134-.211 2.307-.335 3.3-.335 1.967 0 2.284.406 2.284 1.698v1.132H57.94c-2.794 0-3.99 1.114-3.99 3.75 0 2.511 1.312 3.944 3.59 3.944a7.47 7.47 0 003.757-1.008l.118.412a.457.457 0 00.447.327h2.218a.457.457 0 00.461-.451v-8.066c0-3.466-1.485-4.758-5.483-4.758l-.016.01.004.01zm38.811 0c-1.384 0-3.06.212-4.28.54a.445.445 0 00-.333.504l.319 1.928a.454.454 0 00.191.294.5.5 0 00.355.07c1.13-.211 2.295-.335 3.297-.335 1.968 0 2.277.406 2.277 1.698v1.132h-2.914c-2.805 0-4 1.114-4 3.75 0 2.511 1.308 3.944 3.588 3.944a7.45 7.45 0 003.752-1.008l.119.412a.457.457 0 00.446.327h2.204a.46.46 0 00.465-.451v-8.066c0-3.466-1.485-4.758-5.483-4.758l.004.01-.007.01zM22.45 5.896a.512.512 0 00-.486-.068 25.505 25.505 0 01-3.187.932c-.2.053-.38.195-.438.372-.728 1.945-2.604 3.802-4.553 5.73-.073.07-.182.177-.365.177a.48.48 0 01-.364-.165c-1.967-1.936-3.825-3.776-4.554-5.721a.653.653 0 00-.437-.372 26.172 26.172 0 01-3.188-.937.63.63 0 00-.182-.027.518.518 0 00-.304.1.466.466 0 00-.193.425c.164 1.615.829 3.192 2.013 4.846 1.12 1.556 2.568 2.998 3.98 4.39 2.586 2.565 5.036 4.988 5.253 7.8a.493.493 0 00.495.448h3.043c.136 0 .27-.053.364-.15a.47.47 0 00.136-.36c-.096-1.877-.825-3.758-2.227-5.75a18.798 18.798 0 00-.932-1.221.343.343 0 01.025-.462l.31-.304c1.41-1.389 2.86-2.83 3.98-4.386 1.184-1.65 1.84-3.22 2.008-4.834a.488.488 0 00-.193-.436l.01-.013-.014-.014zm-9.017 1.45c.954 0 1.508-.059 1.7-.059.22 0 .456.177.456.442a.492.492 0 01-.037.177c-.127.326-.71 1.507-1.785 2.52a.504.504 0 01-.346.135.524.524 0 01-.358-.134c-1.075-1.014-1.65-2.194-1.777-2.524a.525.525 0 01-.036-.186c0-.257.224-.451.46-.451.194 0 .746.053 1.7.053h.004l.018.018.001.01zM90.76 5.82h-2.725a.45.45 0 00-.462.442v2.335c0 .248.207.45.462.45h2.733a.45.45 0 00.461-.443V6.25a.454.454 0 00-.461-.447l-.008.021V5.82zM26.74.25a.636.636 0 00-.51-.247.587.587 0 00-.291.07c-3.734 1.981-8.057 3.03-12.51 3.032-4.45 0-8.774-1.05-12.504-3.033A.568.568 0 00.632 0c-.2 0-.391.088-.51.248a.586.586 0 00.119.83A22.648 22.648 0 006.36 4.21a22.748 22.748 0 007.068 1.132c2.417 0 4.794-.39 7.067-1.132a22.705 22.705 0 006.126-3.131.61.61 0 00.118-.85v.02z" fill="#5982E7"/></svg>