<svg width="117" height="29" fill="none" xmlns="http://www.w3.org/2000/svg"><path fill-rule="evenodd" clip-rule="evenodd" d="M14.932 23.2c-.17 0-.255.084-.255.084s-2.134 1.662-5.975 1.662c-3.838 0-5.97-1.663-5.97-1.663s-.17-.083-.255-.083c-.17 0-.342.084-.342.332v.082c.341 1.74.597 2.983.597 3.149C2.987 28.006 5.548 29 8.62 29s5.632-.994 5.888-2.237c0-.166.255-1.408.592-3.149v-.082c.082-.166 0-.332-.173-.332h.005zm17.321-4.059c1.11-.58 1.536-1.409 1.536-2.653v-1.74c0-2.485-1.536-3.726-4.778-3.726h-6.485c-.255 0-.426.166-.426.415v16.237c0 .25.17.416.426.416h6.997c3.072 0 4.863-1.492 4.863-4.06v-1.74c0-1.49-.768-2.65-2.133-3.149v.001zm6.656-3.646h-2.641c-.255 0-.428.166-.428.416v11.763c0 .248.173.416.428.416h2.65c.255 0 .428-.168.428-.416V15.91c0-.248-.173-.416-.428-.416h-.009zm63.572-.248c-3.58 0-5.374 1.74-5.374 4.97v3.232c0 3.314 1.794 4.889 5.547 4.889 1.539 0 3.16-.248 4.526-.747.171-.082.341-.247.255-.497l-.426-1.822c0-.084-.085-.249-.17-.249-.086-.083-.255-.083-.342-.083a13.192 13.192 0 01-3.497.498c-1.963 0-2.304-.58-2.304-1.906v-.416h6.57c.255 0 .428-.164.428-.413v-2.32c-.086-3.48-1.707-5.137-5.205-5.137l-.008.001zM55.64 25.355c-.683 0-1.193 0-1.703-.084v-6.385c.768-.336 1.792-.663 2.559-.663 1.024 0 1.452.416 1.452 1.327v3.723c0 1.409-.342 2.072-2.305 2.072l-.003.01zm60.666.248c0-.083-.082-.248-.167-.332-.085-.088-.255-.088-.341-.088-.512.08-.938.168-1.28.168-.683 0-.938-.247-.938-.91v-6.218h2.559c.255 0 .425-.168.425-.415v-1.902c0-.248-.17-.415-.425-.415h-2.56v-2.98c0-.169-.087-.253-.173-.335-.085-.083-.255-.083-.341-.083l-2.644.336c-.255 0-.428.247-.428.413v2.651h-1.448c-.255 0-.429.166-.429.416v1.904c0 .247.174.416.429.416h1.448v6.625c0 2.238 1.196 3.396 3.67 3.396.683 0 1.876-.163 2.645-.416.171-.08.342-.247.255-.495l-.255-1.738-.002.002zm-67.49 0c0-.083-.084-.248-.17-.332-.085-.088-.255-.088-.34-.088-.429.08-.939.168-1.28.168-.683 0-.938-.247-.938-.91v-6.218h2.559c.255 0 .428-.168.428-.415v-1.902c0-.248-.173-.415-.428-.415h-2.562v-2.98c0-.169-.086-.253-.171-.335-.086-.083-.255-.083-.342-.083l-2.643.336c-.255 0-.425.247-.425.413v2.651h-1.456c-.255 0-.428.166-.428.416v1.904c0 .247.172.416.428.416h1.45v6.625c0 2.238 1.193 3.396 3.668 3.396.683 0 1.876-.163 2.641-.416.173-.08.342-.247.255-.495l-.255-1.738.01.002zm35.411-.165c0-.083-.086-.25-.17-.332-.085-.083-.255-.083-.34-.083-.769.165-1.537.248-2.305.248-1.706 0-2.133-.413-2.133-1.822v-3.396c0-1.41.512-1.824 2.133-1.824.428 0 1.366.084 2.304.248.085 0 .255 0 .34-.082.085-.082.17-.166.17-.332l.344-1.988c0-.248-.087-.414-.343-.497-1.023-.332-2.218-.416-2.9-.416-4.01 0-5.633 1.41-5.633 4.89v3.314c0 3.48 1.621 4.889 5.63 4.889.939 0 2.048-.166 2.901-.416.255-.081.342-.248.342-.495l-.343-1.906h.003zm-58.535-.332h3.158c1.367 0 1.877-.332 1.877-1.409V22.45c0-1.078-.425-1.494-1.622-1.494h-1.11c-.256 0-.429-.168-.429-.416v-2.06c0-.249.173-.415.428-.415h.598c1.11 0 1.535-.414 1.535-1.408v-1.493c0-.58-.165-1.16-1.53-1.16h-2.913v11.102h.008zm47.952-9.611h-2.641c-.255 0-.428.166-.428.416v8.118c-.939.497-2.305.994-3.07.994-.598 0-.856-.248-.856-.829v-8.278c0-.248-.173-.416-.428-.416h-2.65c-.254 0-.426.168-.426.416v8.616c0 2.485 1.022 3.812 3.07 3.812 1.366 0 3.328-.498 4.949-1.244l.17.664c.088.166.26.332.428.332h1.965c.255 0 .426-.168.426-.416V15.91c-.086-.168-.255-.416-.512-.416h.003zM8.706 9.53C3.926 9.53 0 10.77 0 12.346c0 .415 1.024 6.296 1.45 8.617.171 1.076 2.988 2.568 7.253 2.568 4.266 0 6.997-1.486 7.253-2.564.419-2.318 1.448-8.199 1.448-8.614-.091-1.574-3.925-2.816-8.707-2.816l.009-.006zm0 12.095c-1.535 0-2.73-1.16-2.73-2.651 0-1.495 1.194-2.653 2.73-2.653 1.535 0 2.73 1.158 2.73 2.653 0 1.406-1.195 2.644-2.73 2.644v.007zm87.887 5.717l-3.499-5.634 3.416-5.545c.084-.168.084-.329 0-.415a.48.48 0 00-.428-.248H93.18a.48.48 0 00-.428.248l-3.243 5.473V11.105c0-.25-.173-.416-.428-.416h-2.645c-.255 0-.428.166-.428.416v16.484c0 .248.172.416.427.416h2.645c.255 0 .428-.168.428-.416v-5.385l3.41 5.633c.086.168.255.25.342.25h2.9c.255 0 .428-.166.428-.415.084-.165.084-.248 0-.331l.004.002zm4.011-7.04v-.416c0-1.238.596-1.733 1.876-1.733 1.451 0 1.707.663 1.707 1.742v.416h-3.583v-.009zM8.707 17.57c.752 0 1.366.6 1.366 1.326 0 .734-.614 1.327-1.366 1.327-.752 0-1.366-.593-1.366-1.327 0-.727.612-1.326 1.366-1.326zm48.72-2.317c-1.279 0-2.644.334-3.497.663v-4.723c0-.247-.17-.415-.428-.415h-2.645c-.255 0-.428.168-.428.415v16.405c0 .248.173.416.342.416 1.621.248 3.584.416 4.693.416 4.95 0 5.973-2.072 5.973-5.139v-3.564c0-2.98-1.366-4.474-4.01-4.474zm-21.16-1.495c-.255 0-.428-.166-.428-.416v-2.237c0-.25.173-.416.428-.416h2.646c.256 0 .428.25.428.416v2.236c0 .247-.172.415-.428.415h-2.646v.002zm-27.562-.584c-3.073 0-5.546-.495-5.546-1.158 0-.663 2.473-1.16 5.546-1.16 3.071 0 5.547.497 5.547 1.158 0 .663-2.476 1.161-5.547 1.161zM42.92 6.63c-.426 0-1.11-.166-1.45-.416-.083 0-.083-.081-.083-.164l.17-.663.082-.083h.17c.429.089.853.168 1.28.168.519 0 .519-.159.519-.415 0-.16 0-.327-.77-.495-1.193-.248-1.366-.575-1.366-1.486 0-.828.257-1.406 1.794-1.406.425 0 1.023.08 1.366.164 0 0 .082.083.082.166l-.084.742-.085.084h-.171a5.82 5.82 0 01-.52-.033l-.16-.016a5.82 5.82 0 00-.518-.035c-.512 0-.512.082-.512.33 0 .336 0 .336.597.5 1.28.333 1.449.582 1.449 1.575 0 .906-.337 1.484-1.758 1.493h-.033l.001-.01zm-3.757 0c-.51 0-1.108-.166-1.706-.416-.085 0-.085-.081-.085-.164l.17-.663.092-.083h.173c.425.089.852.168 1.279.168.51 0 .51-.159.51-.415 0-.16 0-.327-.767-.495-1.193-.248-1.366-.575-1.366-1.486 0-.828.257-1.406 1.794-1.406.426 0 1.024.08 1.366.164.084 0 .17.083.17.166l-.084.746-.084.082h-.091a5.8 5.8 0 01-.517-.035l-.16-.015a5.792 5.792 0 00-.52-.032c-.518 0-.518.08-.518.327 0 .334 0 .334.6.499 1.279.333 1.45.582 1.535 1.574 0 .907-.337 1.486-1.758 1.495h-.033v-.01zM54.61 1.741c-.513 0-1.196.167-1.878.416l-.086-.25c0-.083-.085-.083-.17-.083h-.768c-.086 0-.171.084-.171.166v4.392c0 .082.085.165.171.165h1.024c.085 0 .17-.083.17-.165V3.314c.342-.166.853-.331 1.195-.331.255 0 .341.082.341.33v3.07c0 .08.085.164.17.164h1.02c.083 0 .174-.083.174-.165V3.146c-.091-.994-.428-1.41-1.193-1.41v.005zm-8.193.083h-1.024c-.085 0-.17.084-.17.166v4.392c0 .082.085.165.17.165h1.03c.09 0 .173-.083.173-.165V1.987c0-.082-.084-.165-.173-.165l-.006.002zM32.423.003H31.4c-.085 0-.17.082-.17.164v6.215c0 .082.081.165.163.165h1.03c.081 0 .167-.083.167-.165V.165c0-.082-.086-.165-.17-.165l.003.003zM25.94.25c0-.083-.085-.083-.17-.083h-1.536c-.086 0-.171.083-.171.083L22.094 6.3v.164c0 .083.082.083.167.083h1.111c.084 0 .169-.083.169-.083l1.366-4.475s0-.081.17-.081c.084 0 .17.082.17.082l.598 2.072h-.854c-.088 0-.174.082-.174.082l-.255.823v.162s.085.083.17.083h1.449l.342 1.16c0 .082.086.082.172.082h1.11c.086 0 .086 0 .174-.084v-.168L25.939.249V.25zm8.789 5.303c.428 0 .683-.083.853-.165v-.664h-.853c-.342 0-.427.166-.427.414 0 .33.084.413.42.416h.007v-.001zm-4.096 0c0-.083 0-.083-.085-.083h-.171c-.17.083-.342.083-.512.083-.255 0-.341-.083-.341-.332V2.818h.938c.086 0 .17-.082.17-.165V1.99c0-.082-.084-.166-.17-.166h-.938V.664c0-.082 0-.082-.085-.082 0 0-.086-.08-.171 0L28.243.75c-.086 0-.17.088-.17.168v.99h-.512c-.082 0-.164.087-.164.168v.748c0 .084.087.168.173.168h.513v2.485c0 .828.426 1.242 1.366 1.242.255 0 .681-.084.938-.168.34-.165.34-.165.34-.247l-.085-.747-.01-.004zm18.174 0c.428 0 .683-.083.854-.165v-.664h-.854c-.34 0-.426.166-.426.414 0 .33.084.413.419.416h.007v-.001zM34.983 1.74a8.67 8.67 0 00-1.535.167c-.086 0-.17.082-.086.165l.091.663c0 .082 0 .082.09.082h.084c.428-.082.854-.082 1.194-.082.683 0 .854.166.854.58v.415h-1.03c-1.024 0-1.45.413-1.45 1.325 0 .91.512 1.408 1.28 1.408.51 0 .938-.166 1.364-.331v.165c0 .084.085.084.17.084h.769c.082 0 .173-.089.173-.168v-2.82c0-1.243-.51-1.658-1.96-1.658l-.008.005zm13.995 0c-.512 0-1.11.083-1.537.167-.091 0-.173.082-.091.165l.082.663c0 .082 0 .082.085.082h.085c.428-.082.854-.082 1.193-.082.683 0 .856.166.856.58v.415h-1.016c-1.023 0-1.45.413-1.45 1.325 0 .91.512 1.408 1.28 1.408.512 0 .939-.166 1.367-.331l.084.165c0 .084.085.084.17.084h.769c.085 0 .17-.089.17-.168v-2.82c-.085-1.243-.597-1.658-2.047-1.658v.005zM46.418 0h-1.025c-.085 0-.17.084-.17.166v.829c0 .08.085.159.17.159h1.03c.09 0 .173-.085.173-.168V.165c0-.082-.084-.165-.173-.165l-.005.002z" fill="#D6DAE5"/></svg>