<svg xmlns="http://www.w3.org/2000/svg">

<symbol id="bitbucket" viewBox="0 0 117 29">
    <path fill-rule="evenodd" clip-rule="evenodd" d="M14.9321 23.2004C14.7617 23.2004 14.677 23.2835 14.677 23.2835C14.677 23.2835 12.5431 24.9461 8.7024 24.9461C4.86351 24.9452 2.73231 23.2826 2.73231 23.2826C2.73231 23.2826 2.56199 23.2004 2.47729 23.2004C2.30607 23.2004 2.13484 23.2835 2.13484 23.532V23.6142C2.47638 25.3547 2.73231 26.5972 2.73231 26.7626C2.98732 28.006 5.5484 29 8.61952 29C11.6915 29 14.2517 28.006 14.5076 26.7626C14.5076 26.5972 14.7627 25.3547 15.0996 23.6142V23.532C15.1816 23.3657 15.0996 23.2004 14.9266 23.2004H14.9321ZM32.2531 19.1411C33.3624 18.561 33.7895 17.7323 33.7895 16.488V14.7485C33.7895 12.2634 32.2531 11.0218 29.0107 11.0218H22.5261C22.271 11.0218 22.0998 11.1881 22.0998 11.4375V27.6743C22.0998 27.9237 22.2701 28.09 22.5261 28.09H29.5226C32.5946 28.09 34.3861 26.5981 34.3861 24.0308V22.2886C34.3861 20.7984 33.6183 19.639 32.2531 19.1402V19.1411ZM38.909 15.4949H36.2677C36.0127 15.4949 35.8397 15.6612 35.8397 15.9106V27.6743C35.8397 27.922 36.0127 28.09 36.2677 28.09H38.9181C39.1731 28.09 39.3461 27.922 39.3461 27.6743V15.9097C39.3461 15.6621 39.1731 15.494 38.9181 15.494L38.909 15.4949ZM102.481 15.2473C98.9013 15.2473 97.1071 16.9868 97.1071 20.2174V23.4489C97.1071 26.7634 98.9013 28.3376 102.654 28.3376C104.193 28.3376 105.814 28.09 107.18 27.5912C107.351 27.509 107.521 27.3436 107.435 27.0942L107.009 25.2724C107.009 25.1884 106.924 25.023 106.839 25.023C106.753 24.9399 106.584 24.9399 106.497 24.9399C105.304 25.2715 104.109 25.4378 103 25.4378C101.037 25.4378 100.696 24.8576 100.696 23.532V23.1163H107.266C107.521 23.1163 107.694 22.9518 107.694 22.7033V20.3837C107.608 16.9037 105.987 15.2455 102.489 15.2455L102.481 15.2473ZM55.6398 25.3555C54.9567 25.3555 54.4467 25.3555 53.9367 25.2715V18.8864C54.7053 18.5504 55.729 18.2232 56.4959 18.2232C57.5205 18.2232 57.9477 18.6388 57.9477 19.5497V23.2729C57.9477 24.6817 57.6061 25.3449 55.6434 25.3449L55.6398 25.3555ZM116.306 25.6032C116.306 25.52 116.224 25.3555 116.139 25.2715C116.054 25.1831 115.884 25.1831 115.798 25.1831C115.286 25.2627 114.86 25.3511 114.518 25.3511C113.835 25.3511 113.58 25.1035 113.58 24.4402V18.2232H116.139C116.394 18.2232 116.564 18.0551 116.564 17.8075V15.9061C116.564 15.6585 116.394 15.4905 116.139 15.4905H113.579V12.5102C113.579 12.3422 113.492 12.2581 113.406 12.1759C113.321 12.0928 113.151 12.0928 113.065 12.0928L110.421 12.4288C110.166 12.4288 109.993 12.6764 109.993 12.8418V15.4931H108.545C108.29 15.4931 108.116 15.6594 108.116 15.9088V17.8128C108.116 18.0604 108.29 18.2285 108.545 18.2285H109.993V24.8541C109.993 27.0915 111.189 28.2501 113.663 28.2501C114.346 28.2501 115.539 28.0865 116.308 27.8344C116.479 27.7548 116.65 27.5868 116.563 27.3392L116.308 25.6005L116.306 25.6032ZM48.8163 25.6032C48.8163 25.52 48.7316 25.3555 48.646 25.2715C48.5613 25.1831 48.391 25.1831 48.3054 25.1831C47.8773 25.2627 47.3673 25.3511 47.0257 25.3511C46.3427 25.3511 46.0876 25.1035 46.0876 24.4402V18.2232H48.6469C48.9019 18.2232 49.075 18.0551 49.075 17.8075V15.9061C49.075 15.6585 48.9019 15.4905 48.6469 15.4905H46.0849V12.5102C46.0849 12.3422 45.9993 12.2581 45.9137 12.1759C45.8281 12.0928 45.6587 12.0928 45.5721 12.0928L42.9291 12.4288C42.6741 12.4288 42.5038 12.6764 42.5038 12.8418V15.4931H41.0484C40.7933 15.4931 40.6203 15.6594 40.6203 15.9088V17.8128C40.6203 18.0604 40.7915 18.2285 41.0484 18.2285H42.4983V24.8541C42.4983 27.0915 43.6914 28.2501 46.166 28.2501C46.849 28.2501 48.0422 28.0865 48.8072 27.8344C48.9802 27.7548 49.1487 27.5868 49.0622 27.3392L48.8072 25.6005L48.8163 25.6032ZM84.227 25.4378C84.227 25.3547 84.1414 25.1884 84.0567 25.1062C83.972 25.023 83.8017 25.023 83.7161 25.023C82.9483 25.1884 82.1805 25.2706 81.4118 25.2706C79.7059 25.2706 79.2788 24.8576 79.2788 23.4489V20.0529C79.2788 18.6432 79.7906 18.2294 81.4118 18.2294C81.8399 18.2294 82.778 18.3125 83.7161 18.477C83.8008 18.477 83.9711 18.477 84.0567 18.3947C84.1405 18.3125 84.2261 18.2294 84.2261 18.0631L84.5695 16.075C84.5695 15.8274 84.4829 15.6612 84.227 15.578C83.2042 15.2464 82.0093 15.1624 81.3271 15.1624C77.3161 15.1624 75.694 16.5721 75.694 20.0529V23.3657C75.694 26.8457 77.3152 28.2545 81.3244 28.2545C82.2625 28.2545 83.3718 28.0891 84.2252 27.8388C84.4802 27.7575 84.5667 27.5912 84.5667 27.3436L84.2243 25.4378H84.227ZM25.6919 25.1062H28.8504C30.2166 25.1062 30.7266 24.7745 30.7266 23.6974V22.4504C30.7266 21.3715 30.3022 20.9558 29.1054 20.9558H27.9943C27.7393 20.9558 27.5662 20.7878 27.5662 20.5402V18.4805C27.5662 18.2311 27.7393 18.0649 27.9943 18.0649H28.5918C29.7011 18.0649 30.1273 17.651 30.1273 16.657V15.1642C30.1273 14.584 29.9616 14.0039 28.5972 14.0039H25.6837V25.1062H25.6919ZM73.6439 15.4949H71.0026C70.7476 15.4949 70.5746 15.6612 70.5746 15.9106V24.029C69.6365 24.526 68.2703 25.023 67.5053 25.023C66.9069 25.023 66.6492 24.7754 66.6492 24.1944V15.9159C66.6492 15.6682 66.4761 15.5002 66.2211 15.5002H63.5717C63.3167 15.5002 63.1454 15.6682 63.1454 15.9159V24.5322C63.1454 27.0173 64.1673 28.3438 66.2147 28.3438C67.5809 28.3438 69.5427 27.8459 71.1638 27.1004L71.3342 27.7637C71.4225 27.9299 71.5937 28.0962 71.7622 28.0962H73.7267C73.9818 28.0962 74.153 27.9282 74.153 27.6805V15.9097C74.0674 15.7416 73.898 15.494 73.6411 15.494L73.6439 15.4949ZM8.70604 9.53077C3.92541 9.53077 0 10.7715 0 12.3457C0 12.7613 1.0237 18.6424 1.45086 20.9629C1.62117 22.0392 4.43818 23.5311 8.70331 23.5311C12.9694 23.5311 15.6998 22.0454 15.9558 20.9665C16.3747 18.6494 17.4039 12.7684 17.4039 12.3528C17.3128 10.7786 13.4785 9.53696 8.69693 9.53696L8.70604 9.53077ZM8.70604 21.6262C7.1714 21.6262 5.97647 20.4659 5.97647 18.9749C5.97647 17.4803 7.16957 16.3218 8.70513 16.3218C10.2407 16.3218 11.4356 17.4803 11.4356 18.9749C11.4356 20.381 10.2407 21.6191 8.70513 21.6191L8.70604 21.6262ZM96.5934 27.3427L93.0943 21.7093L96.5096 16.1644C96.5943 15.9963 96.5943 15.8354 96.5096 15.7487C96.4231 15.5869 96.2528 15.5011 96.0816 15.5011H93.1808C93.0096 15.5011 92.8383 15.5869 92.7527 15.7487L89.5104 21.222V11.1049C89.5104 10.8555 89.3373 10.6893 89.0823 10.6893H86.4365C86.1815 10.6893 86.0085 10.8555 86.0085 11.1049V27.5894C86.0085 27.8371 86.1815 28.0051 86.4365 28.0051H89.0814C89.3364 28.0051 89.5095 27.8371 89.5095 27.5894V22.2037L92.9194 27.8371C93.005 28.0051 93.1744 28.0873 93.2609 28.0873H96.1608C96.4158 28.0873 96.5889 27.9211 96.5889 27.6717C96.6727 27.5072 96.6727 27.4241 96.5889 27.3409L96.5934 27.3427ZM100.604 20.3032V19.8875C100.604 18.6494 101.2 18.1542 102.48 18.1542C103.931 18.1542 104.187 18.8175 104.187 19.8964V20.312H100.604V20.3032ZM8.70695 17.5696C9.45925 17.5696 10.0731 18.1692 10.0731 18.8962C10.0731 19.6302 9.45925 20.2227 8.70695 20.2227C7.95466 20.2227 7.3408 19.6302 7.3408 18.8962C7.3408 18.1692 7.95284 17.5696 8.70695 17.5696ZM57.4276 15.2526C56.148 15.2526 54.7828 15.5869 53.9303 15.9159V11.1934C53.9303 10.9457 53.7591 10.7777 53.5022 10.7777H50.8573C50.6023 10.7777 50.4293 10.9457 50.4293 11.1934V27.5983C50.4293 27.8459 50.6023 28.0139 50.7708 28.0139C52.392 28.2616 54.3547 28.4296 55.464 28.4296C60.4131 28.4296 61.4368 26.3584 61.4368 23.2914V19.7275C61.4368 16.7472 60.0707 15.2526 57.4267 15.2526H57.4276ZM36.2668 13.758C36.0118 13.758 35.8388 13.5918 35.8388 13.3424V11.1049C35.8388 10.8555 36.0118 10.6893 36.2668 10.6893H38.9126C39.1694 10.6893 39.3407 10.9387 39.3407 11.1049V13.3406C39.3407 13.5882 39.1694 13.7563 38.9126 13.7563H36.2668V13.758ZM8.70513 13.1743C5.63219 13.1743 3.15855 12.6791 3.15855 12.0158C3.15855 11.3526 5.63219 10.8555 8.70513 10.8555C11.7762 10.8555 14.2517 11.3526 14.2517 12.0141C14.2517 12.6773 11.7762 13.1752 8.70513 13.1752V13.1743ZM42.92 6.63006C42.4938 6.63006 41.8107 6.4638 41.4691 6.21441C41.3872 6.21441 41.3872 6.13305 41.3872 6.04992L41.5575 5.38665L41.6395 5.3044H41.8098C42.2378 5.39284 42.6622 5.47243 43.0885 5.47243C43.6076 5.47243 43.6076 5.31325 43.6076 5.05678C43.6076 4.8976 43.6076 4.72957 42.838 4.56154C41.6449 4.31392 41.4719 3.9867 41.4719 3.07581C41.4719 2.24805 41.7287 1.66968 43.2661 1.66968C43.6914 1.66968 44.2889 1.74927 44.6322 1.83417C44.6322 1.83417 44.7142 1.9173 44.7142 1.99954L44.6295 2.74241L44.5448 2.82554H44.3736C44.2224 2.82554 44.0402 2.8105 43.8544 2.79282L43.6932 2.7769C43.5074 2.75921 43.3253 2.74152 43.1759 2.74152C42.6641 2.74152 42.6641 2.82377 42.6641 3.07227C42.6641 3.40833 42.6641 3.40833 43.2615 3.57282C44.5402 3.90534 44.7097 4.15385 44.7097 5.14699C44.7097 6.05257 44.3727 6.63095 42.9519 6.63979H42.9191L42.92 6.63006ZM39.1631 6.63006C38.653 6.63006 38.0547 6.4638 37.4572 6.21441C37.3716 6.21441 37.3716 6.13305 37.3716 6.04992L37.5428 5.38665L37.6339 5.3044H37.8069C38.2323 5.39284 38.6594 5.47243 39.0857 5.47243C39.5957 5.47243 39.5957 5.31325 39.5957 5.05678C39.5957 4.8976 39.5957 4.72957 38.8288 4.56154C37.6357 4.31392 37.4627 3.9867 37.4627 3.07581C37.4627 2.24805 37.7204 1.66968 39.2569 1.66968C39.6831 1.66968 40.2806 1.74927 40.623 1.83417C40.7068 1.83417 40.7924 1.9173 40.7924 1.99954L40.7086 2.74594L40.6249 2.82819H40.5338C40.3853 2.82819 40.2032 2.8105 40.0174 2.79282L39.8571 2.77778C39.6713 2.76009 39.4891 2.74594 39.3379 2.74594C38.8188 2.74594 38.8188 2.82554 38.8188 3.07316C38.8188 3.40656 38.8188 3.40656 39.4181 3.57194C40.6977 3.90534 40.8689 4.15385 40.9536 5.1461C40.9536 6.05257 40.6167 6.63183 39.1959 6.64068H39.1631V6.63006ZM54.6097 1.74131C54.0969 1.74131 53.4139 1.90757 52.7317 2.15696L52.6461 1.90757C52.6461 1.82444 52.5614 1.82444 52.4758 1.82444H51.708C51.6224 1.82444 51.5368 1.90757 51.5368 1.98981V6.38244C51.5368 6.4638 51.6224 6.54693 51.708 6.54693H52.7317C52.8173 6.54693 52.902 6.4638 52.902 6.38156V3.3137C53.2436 3.14833 53.7554 2.98295 54.0969 2.98295C54.352 2.98295 54.4385 3.0652 54.4385 3.3137V6.38244C54.4385 6.4638 54.5232 6.54693 54.6088 6.54693H55.6289C55.7108 6.54693 55.8019 6.4638 55.8019 6.38156V3.14568C55.7108 2.15165 55.3738 1.73689 54.6088 1.73689L54.6097 1.74131ZM46.4173 1.82444H45.3927C45.308 1.82444 45.2233 1.90757 45.2233 1.98981V6.38244C45.2233 6.4638 45.308 6.54693 45.3936 6.54693H46.4228C46.5121 6.54693 46.5959 6.4638 46.5959 6.38156V1.98716C46.5959 1.90492 46.5121 1.82179 46.4228 1.82179L46.4173 1.82444ZM32.4234 0.00265309H31.3997C31.315 0.00265309 31.2294 0.0848987 31.2294 0.167144V6.38244C31.2294 6.4638 31.3113 6.54693 31.3933 6.54693H32.4225C32.5044 6.54693 32.59 6.4638 32.59 6.38156V0.165376C32.59 0.08313 32.5044 -1.30726e-08 32.4197 -1.30726e-08L32.4234 0.00265309ZM25.9387 0.250274C25.9387 0.167144 25.854 0.167144 25.7684 0.167144H24.2328C24.1472 0.167144 24.0616 0.250274 24.0616 0.250274L22.0943 6.29931V6.4638C22.0943 6.54693 22.1763 6.54693 22.261 6.54693H23.3722C23.4559 6.54693 23.5406 6.4638 23.5406 6.4638L24.9068 1.98893C24.9068 1.98893 24.9068 1.90757 25.0771 1.90757C25.1609 1.90757 25.2465 1.98981 25.2465 1.98981L25.8449 4.06187H24.9906C24.9032 4.06187 24.8175 4.14412 24.8175 4.14412L24.5625 4.96658V5.1293C24.5625 5.1293 24.6472 5.21243 24.7328 5.21243H26.181L26.5234 6.37271C26.5234 6.45407 26.609 6.45407 26.6946 6.45407H27.8058C27.8914 6.45407 27.8914 6.45407 27.9788 6.37006V6.20203L25.9387 0.24939V0.250274ZM34.7276 5.55291C35.1557 5.55291 35.4107 5.46978 35.581 5.38753V4.72426H34.7276C34.3861 4.72426 34.3014 4.88964 34.3014 5.13814C34.3014 5.46713 34.3852 5.55114 34.7203 5.55379H34.7276V5.55291ZM30.6319 5.55291C30.6319 5.46978 30.6319 5.46978 30.5472 5.46978H30.376C30.2057 5.55291 30.0344 5.55291 29.8641 5.55291C29.6091 5.55291 29.5226 5.46978 29.5226 5.22127V2.81846H30.4607C30.5472 2.81846 30.6319 2.73622 30.6319 2.65309V1.98981C30.6319 1.90757 30.5472 1.82444 30.4616 1.82444H29.5235V0.664156C29.5235 0.58191 29.5235 0.58191 29.4379 0.58191C29.4379 0.58191 29.3523 0.502318 29.2667 0.58191L28.2429 0.749939C28.1573 0.749939 28.0726 0.838375 28.0726 0.917968V1.90845H27.5608C27.4788 1.90845 27.3968 1.99512 27.3968 2.07648V2.82377C27.3968 2.90778 27.4843 2.9918 27.5699 2.9918H28.0827V5.47685C28.0827 6.30462 28.5089 6.71938 29.4488 6.71938C29.7038 6.71938 30.1301 6.63537 30.3869 6.55135C30.7275 6.38598 30.7275 6.38598 30.7275 6.30373L30.6419 5.55733L30.6319 5.55291ZM48.8063 5.55291C49.2344 5.55291 49.4894 5.46978 49.6597 5.38753V4.72426H48.8063C48.4657 4.72426 48.3801 4.88964 48.3801 5.13814C48.3801 5.46713 48.4638 5.55114 48.799 5.55379H48.8063V5.55291ZM34.9826 1.74131C34.4726 1.74131 33.8742 1.82444 33.448 1.90757C33.3624 1.90757 33.2777 1.98981 33.3624 2.07294L33.4535 2.73622C33.4535 2.81846 33.4535 2.81846 33.5427 2.81846H33.6274C34.0555 2.73622 34.4808 2.73622 34.8205 2.73622C35.5036 2.73622 35.6748 2.90159 35.6748 3.31547V3.73112H34.6457C33.621 3.73112 33.1948 4.14412 33.1948 5.0559C33.1948 5.96679 33.7066 6.4638 34.4744 6.4638C34.9845 6.4638 35.4125 6.29843 35.8388 6.13305V6.29843C35.8388 6.38156 35.9244 6.38156 36.0091 6.38156H36.7778C36.8597 6.38156 36.9508 6.29312 36.9508 6.21353V3.3933C36.9508 2.15077 36.4408 1.736 34.9908 1.736L34.9826 1.74131ZM48.9775 1.74131C48.4657 1.74131 47.8682 1.82444 47.441 1.90757C47.35 1.90757 47.268 1.98981 47.35 2.07294L47.4319 2.73622C47.4319 2.81846 47.4319 2.81846 47.5166 2.81846H47.6023C48.0303 2.73622 48.4556 2.73622 48.7954 2.73622C49.4784 2.73622 49.6515 2.90159 49.6515 3.31547V3.73112H48.6351C47.6123 3.73112 47.1851 4.14412 47.1851 5.0559C47.1851 5.96679 47.697 6.4638 48.4657 6.4638C48.9775 6.4638 49.4038 6.29843 49.8318 6.13305L49.9156 6.29843C49.9156 6.38156 50.0012 6.38156 50.0868 6.38156H50.8546C50.9402 6.38156 51.0249 6.29312 51.0249 6.21353V3.3933C50.9402 2.15077 50.4275 1.736 48.9775 1.736V1.74131ZM46.4183 0.00176874H45.3927C45.308 0.00176874 45.2233 0.0848987 45.2233 0.167144V0.995792C45.2233 1.07538 45.308 1.15498 45.3936 1.15498H46.4228C46.5121 1.15498 46.5959 1.07008 46.5959 0.986948V0.165376C46.5959 0.08313 46.5121 -1.30726e-08 46.4228 -1.30726e-08L46.4183 0.00176874Z"/>
</symbol>

<symbol id="watch" viewBox="0 0 117 25">
    <path fill-rule="evenodd" clip-rule="evenodd" d="M15.1296 5.86686C13.0704 5.71917 11.3235 6.98381 10.3499 6.98381C9.36082 6.98381 7.83619 5.8987 6.21958 5.92699C4.09749 5.95883 2.14024 7.12619 1.04641 8.97274C-1.15856 12.6897 0.483554 18.1958 2.63115 21.2097C3.68126 22.6848 4.93357 24.3438 6.57933 24.2837C8.16407 24.2227 8.76244 23.287 10.6769 23.287C12.5904 23.287 13.1305 24.2837 14.8054 24.2519C16.5094 24.2227 17.5905 22.7502 18.6324 21.2671C19.8392 19.5577 20.3356 17.903 20.3647 17.8128C20.3265 17.8004 17.0413 16.5738 17.0085 12.8993C16.9794 9.82792 19.5915 8.35015 19.7108 8.27851C18.2272 6.1587 15.9366 5.92523 15.1296 5.86686ZM97.4258 17.8641V18.1896C97.4258 21.3971 95.0095 24.2669 90.1606 24.2669C85.3253 24.2669 82.4509 21.3193 82.4509 16.1679V14.0163C82.4509 8.91791 85.339 5.87836 90.1734 5.87836C94.7126 5.87836 97.4258 8.65702 97.4258 12.1255V12.3077H93.7855C93.7855 10.5478 92.6306 8.98247 90.1998 8.98247C87.6077 8.98247 86.3044 10.6645 86.3044 14.0163V16.1679C86.3044 19.5586 87.595 21.1371 90.2262 21.1371C92.8456 21.1371 93.7855 19.7018 93.7855 17.8641H97.4258ZM31.2256 18.8811H31.2794L34.5436 6.16577H38.398L41.6749 18.8811H41.7286L44.7651 6.16577H48.8208L43.7305 23.968H39.8752L36.5045 11.7992H36.4371L33.0654 23.968H29.2384L24.1344 6.16577H28.191L31.2256 18.8811ZM105.269 13.3123H112.763V6.16577H116.578V23.968H112.763V16.3775H105.269V23.968H101.469V6.16577H105.269V13.3123ZM79.9928 6.16577V9.24335H74.5273V23.968H70.7394V9.24335H65.2866V6.16577H79.9928ZM59.4568 6.16577L65.3531 23.9671H61.2829L59.9759 19.4807H54.177L52.8491 23.9671H49.0485L54.9585 6.16577H59.4568ZM59.1808 16.7427L57.1206 9.67404H57.0806L54.9885 16.7427H59.1808ZM13.7753 3.97167C12.8955 4.95154 11.5102 5.69706 10.1505 5.59536C9.95737 4.2016 10.6678 2.74771 11.4765 1.83859C12.3791 0.814498 13.901 0.0477556 15.1597 0C15.3218 1.42029 14.7325 2.85118 13.8582 3.87527L13.8172 3.92391L13.7753 3.97167Z"/>
</symbol>

<symbol id="fb" viewBox="0 0 117 23">
    <path fill-rule="evenodd" clip-rule="evenodd" d="M115.15 19.5391C115.945 19.5391 116.578 20.167 116.578 20.9541C116.578 21.75 115.945 22.3691 115.143 22.3691C114.349 22.3691 113.704 21.75 113.704 20.9541C113.704 20.167 114.349 19.5391 115.143 19.5391H115.15ZM23.21 22.1798H19.2755L19.1079 21.2158C17.3101 22.1798 15.7071 22.3372 14.6506 22.3372C11.7635 22.3372 10.2279 20.4694 10.2279 17.8836C10.2279 14.8343 12.0203 13.7448 15.2262 13.7448H18.4868V13.0868C18.4868 11.5303 18.3046 11.074 15.8273 11.074H11.8036L12.1988 7.25354H16.6124C22.026 7.25354 23.2137 8.91614 23.2137 13.1186V22.1798H23.21ZM81.8271 16.1891C81.8271 19.3021 80.5029 22.3213 74.9599 22.3213C69.4115 22.3213 68.0618 19.3021 68.0618 16.1891V13.1823C68.0618 10.0693 69.4097 7.05013 74.9581 7.05013C80.5138 7.05013 81.8435 10.0693 81.8435 13.1841V16.1909L81.8271 16.1891ZM96.9423 16.1891C96.9423 19.3021 95.6162 22.3213 90.0751 22.3213C84.5248 22.3213 83.1751 19.3021 83.1751 16.1891V13.1823C83.1751 10.0693 84.523 7.05013 90.0732 7.05013C95.6107 7.05013 96.9404 10.0693 96.9404 13.1841V16.1909L96.9423 16.1891ZM115.143 19.762C114.506 19.762 113.977 20.2926 113.977 20.9523C113.977 21.6244 114.506 22.1515 115.15 22.1515C115.797 22.1692 116.316 21.6386 116.316 20.9665C116.316 20.312 115.797 19.7779 115.15 19.7779H115.143V19.762ZM7.0785 22.1497H2.36071V11.0775H0V7.25707H2.35889V4.96658C2.35889 1.85362 3.68861 -2.61452e-08 7.47377 -2.61452e-08H10.625V3.82044H8.65777C7.18232 3.82044 7.08396 4.35106 7.08396 5.34862L7.06575 7.25884H10.636L10.217 11.0793H7.06757V22.1515L7.0785 22.1497ZM114.872 21.7783H114.613V20.1988C114.759 20.1811 114.886 20.1635 115.087 20.1635C115.336 20.1635 115.498 20.2112 115.597 20.2802C115.695 20.3509 115.742 20.4571 115.742 20.6074C115.742 20.8143 115.604 20.9399 115.433 20.9912V21.0036C115.571 21.0284 115.669 21.1522 115.706 21.3856C115.742 21.6297 115.779 21.7252 115.804 21.7748H115.531C115.495 21.7252 115.453 21.5802 115.422 21.375C115.385 21.1716 115.276 21.0973 115.072 21.0973H114.89V21.7765L114.872 21.7783ZM114.872 20.9028H115.059C115.272 20.9028 115.453 20.8267 115.453 20.6322C115.453 20.4942 115.351 20.3562 115.059 20.3562C114.975 20.3562 114.914 20.3615 114.872 20.3686V20.9028ZM14.9475 17.8252C14.9475 18.66 15.3556 19.0934 16.2518 19.0934C17.2172 19.0934 17.7855 18.7892 18.4886 18.4743V16.8029H16.3829C15.3847 16.8029 14.9475 16.9797 14.9475 17.8234V17.8252ZM60.016 10.8635C59.0506 10.8635 58.3584 11.1642 57.6553 11.4826V18.5221C58.3293 18.584 58.7155 18.584 59.3566 18.584C61.67 18.584 61.9833 17.5581 61.9833 16.1255V12.7578C61.9833 11.7036 61.619 10.8529 60.016 10.8529V10.8635ZM74.9435 10.8635C73.3369 10.8635 72.7814 11.7125 72.7814 12.756V16.6119C72.7814 17.6731 73.3369 18.5221 74.9435 18.5221C76.5465 18.5221 77.1039 17.6731 77.1039 16.6119V12.756C77.1039 11.7019 76.5392 10.8511 74.9362 10.8511L74.9435 10.8635ZM36.5874 11.3411C34.1393 10.9342 33.4361 10.8458 32.2594 10.8458C30.1428 10.8458 29.5035 11.2933 29.5035 13.039V16.3289C29.5035 18.0711 30.141 18.5221 32.2594 18.5221C33.438 18.5221 34.1393 18.4336 36.5874 18.0268V21.7482C34.4435 22.2169 33.0463 22.339 31.866 22.339C26.7985 22.339 24.7838 19.7566 24.7838 16.0246V13.3539C24.7838 9.61478 26.7985 7.02714 31.866 7.02714C33.0463 7.02714 34.4435 7.15095 36.5874 7.61966V11.3411ZM51.3601 16.0282H42.7041V16.3289C42.7041 18.0711 43.3417 18.5221 45.4583 18.5221C47.3618 18.5221 48.5185 18.4336 50.963 18.0268V21.7482C48.6077 22.2169 47.38 22.339 45.0667 22.339C40.0028 22.339 37.9991 19.7566 37.9991 16.0246V12.9647C37.9991 9.69791 39.4928 7.02183 44.6841 7.02183C49.8846 7.02183 51.3692 9.66608 51.3692 12.9647V16.0246L51.3601 16.0282ZM90.0568 10.8635C88.4539 10.8635 87.8983 11.7125 87.8983 12.7613V16.6225C87.8983 17.6837 88.4539 18.5327 90.0568 18.5327C91.6598 18.5327 92.2245 17.6837 92.2245 16.6225V12.7596C92.2245 11.7036 91.6598 10.8529 90.0568 10.8529V10.8635ZM112.456 22.148H107.343L103.015 15.1438V22.148H98.2975V1.14083L103.015 0.380276V13.9022L107.341 7.25177H112.442L107.715 14.5035L112.438 22.1444L112.456 22.148ZM44.6714 10.4744C43.0684 10.4744 42.7041 11.3234 42.7041 12.3846V12.9736H46.6387V12.3793C46.6387 11.3358 46.2743 10.4797 44.6714 10.4797V10.4744ZM66.7047 16.0989C66.7047 19.7071 65.63 22.3425 59.1818 22.3425C56.8575 22.3425 55.4913 22.1409 52.923 21.7588V1.13729L57.6407 0.376738V7.58783C58.6608 7.21993 59.9814 7.03421 61.1836 7.03421C65.9014 7.03421 66.6847 9.08593 66.6847 12.3811V16.1131L66.7047 16.0989Z"/>
</symbol>

<symbol id="atlassian" viewBox="0 0 117 25">
    <path fill-rule="evenodd" clip-rule="evenodd" d="M81.923 15.7478C80.229 15.3233 80.229 15.3057 80.229 14.4036C80.229 13.796 80.2909 13.506 81.6862 13.506C82.6443 13.506 84.0542 13.6652 84.9613 13.819C85.0852 13.8367 85.2127 13.8102 85.3147 13.7306C85.4167 13.6599 85.4823 13.5449 85.4969 13.4211L85.7555 11.4003C85.7738 11.1704 85.628 10.9581 85.3912 10.9051C84.3347 10.6698 82.8775 10.516 81.6753 10.516C77.4675 10.516 76.6114 12.0547 76.6114 14.3665C76.6114 16.9072 77.0941 17.7624 80.3128 18.523C82.4331 19.0182 82.4331 19.3852 82.4331 19.9954C82.4331 20.7967 82.3602 21.0744 80.9758 21.0744C79.8574 21.0744 78.5641 20.9063 77.4275 20.6109C77.3 20.5809 77.1724 20.6003 77.0632 20.664C76.9539 20.733 76.8755 20.8409 76.8519 20.9647L76.5039 22.8935C76.4621 23.1146 76.595 23.3312 76.8136 23.4002C78.0559 23.7893 79.8374 24.0546 81.1452 24.0546C85.2145 24.0546 86.0452 22.392 86.0452 19.9158C86.0452 17.1743 85.5461 16.6614 81.9176 15.7293L81.923 15.747V15.7478ZM71.3708 15.7478C69.6768 15.3233 69.6768 15.3057 69.6768 14.4036C69.6768 13.796 69.7387 13.506 71.134 13.506C72.0904 13.506 73.502 13.6652 74.4092 13.819C74.533 13.8367 74.6605 13.8102 74.7626 13.7306C74.8646 13.6599 74.9301 13.5449 74.9447 13.4211L75.2034 11.4003C75.2325 11.1704 75.0795 10.9581 74.8482 10.9051C73.8099 10.6698 72.3527 10.516 71.1504 10.516C66.9536 10.516 66.0866 12.0547 66.0866 14.3665C66.0866 16.9072 66.5784 17.7624 69.7952 18.523C71.9155 19.0182 71.9155 19.3852 71.9155 19.9954C71.9155 20.7967 71.8426 21.0744 70.4583 21.0744C69.338 21.0744 68.0447 20.9063 66.9063 20.6109C66.7787 20.5809 66.6512 20.6003 66.5419 20.664C66.4327 20.733 66.3543 20.8409 66.3307 20.9647L65.9663 22.8838C65.9299 23.1048 66.0574 23.3224 66.2815 23.3914C67.5201 23.7805 69.3016 24.0458 70.6113 24.0458C74.6733 24.0458 75.5112 22.3832 75.5112 19.907C75.5112 17.1655 75.0048 16.6525 71.3763 15.7204L71.3708 15.7381V15.7478ZM34.0202 6.45673C33.9601 6.26924 33.7834 6.1419 33.5794 6.1419H29.2651C29.0647 6.1419 28.8826 6.26836 28.8225 6.45408L23.3788 23.203C23.3369 23.3357 23.3606 23.486 23.448 23.601C23.5354 23.7159 23.6739 23.784 23.8214 23.784H26.7905C26.9964 23.784 27.1767 23.6514 27.235 23.4657L30.9846 11.1377C30.9846 11.1377 31.0848 10.8281 31.4218 10.8281C31.7679 10.8281 31.859 11.1465 31.859 11.1465L33.5985 16.9921H31.267C31.0666 16.9921 30.8844 17.1274 30.8298 17.3193L30.1558 19.6364C30.1194 19.769 30.1558 19.9194 30.2287 20.0255C30.3198 20.1378 30.4655 20.2024 30.6112 20.2024H34.5913L35.6386 23.4683C35.6969 23.654 35.8755 23.7814 36.0758 23.7814H39.0449C39.1906 23.7814 39.3327 23.7106 39.4202 23.5957C39.5112 23.4789 39.5367 23.3304 39.493 23.1942L34.0439 6.42666L34.0257 6.45496L34.0202 6.45673ZM90.7611 10.7848H88.0288C87.7738 10.7848 87.568 10.9855 87.568 11.2332V23.3666C87.568 23.6142 87.7756 23.8194 88.0306 23.8194H90.7629C91.018 23.8194 91.2247 23.6187 91.2247 23.3684V11.2376C91.2247 10.99 91.0243 10.7928 90.7693 10.7928L90.7602 10.7857L90.7611 10.7848ZM52.017 5.81468H49.2847C49.0297 5.81468 48.8239 6.01543 48.8239 6.26305V23.3666C48.8239 23.6142 49.0315 23.8194 49.2865 23.8194H52.0188C52.2738 23.8194 52.4797 23.6187 52.4797 23.3684V6.26748C52.4797 6.01985 52.2793 5.82264 52.0243 5.82264L52.017 5.81557V5.81468ZM113.439 10.5239C111.996 10.5239 110.024 11.0085 108.357 11.7691L108.157 11.1147C108.102 10.9201 107.92 10.7919 107.715 10.7919H105.693C105.438 10.7919 105.229 10.9926 105.229 11.2402V23.3737C105.229 23.6213 105.429 23.8247 105.684 23.8247H108.416C108.671 23.8247 108.881 23.6248 108.881 23.3737V14.9722C109.865 14.4859 111.249 13.9818 112.071 13.9818C112.687 13.9818 112.915 14.2064 112.915 14.8042V23.3648C112.915 23.616 113.124 23.8159 113.379 23.8159H116.111C116.366 23.8159 116.572 23.616 116.572 23.3648V14.4567C116.572 11.8522 115.516 10.5301 113.437 10.5301H113.436L113.439 10.5239ZM10.1672 17.7377C10.0943 17.6669 9.99048 17.5917 9.81197 17.5917C9.58428 17.5917 9.45131 17.7438 9.4003 17.8181C8.12523 19.7107 7.46947 21.4971 7.3784 23.2923C7.37567 23.425 7.42667 23.5576 7.51957 23.6549C7.61064 23.761 7.74726 23.8141 7.88387 23.8141H10.9113C11.1754 23.8141 11.394 23.6195 11.4122 23.3719C11.4851 22.5052 11.7583 21.6386 12.2683 20.7365C12.4414 20.4182 12.3047 20.1263 12.2046 19.9998C11.7036 19.3631 11.0907 18.691 10.1799 17.766L10.1763 17.7483L10.1672 17.7377ZM60.8761 19.0288V20.5915C60.4298 20.8391 59.6101 21.1752 58.6174 21.1752C57.7703 21.1752 57.5062 20.9275 57.5062 20.0962C57.5062 19.3003 57.6702 19.0492 58.672 19.0492H60.8761V19.0297V19.0288ZM99.693 19.0288V20.5915C99.2376 20.8391 98.418 21.1752 97.4343 21.1752C96.5873 21.1752 96.3232 20.9275 96.3232 20.0962C96.3232 19.3003 96.4871 19.0492 97.489 19.0492H99.693V19.0297V19.0288ZM46.9686 21.2265C46.9504 21.0991 46.8775 20.9877 46.7682 20.9169C46.659 20.8462 46.5296 20.825 46.4021 20.855C45.9103 20.9718 45.4549 21.0354 45.0906 21.0354C44.4166 21.0354 44.107 20.7524 44.107 20.1157V13.6864H46.7573C47.0123 13.6864 47.22 13.483 47.22 13.2354V11.2279C47.22 10.9802 47.0105 10.7768 46.7555 10.7768H44.1143V7.6913C44.1143 7.55864 44.0523 7.43749 43.9503 7.35082C43.8501 7.26504 43.7135 7.22701 43.586 7.2447L40.8537 7.61613C40.6242 7.64531 40.453 7.83456 40.453 8.05831V10.7821H38.962C38.707 10.7821 38.4994 10.9829 38.4994 11.2305V13.2469C38.4994 13.4945 38.718 13.6997 38.973 13.6997H40.4594V20.5358C40.4594 22.8855 41.729 24.0732 44.2354 24.0732C44.9458 24.0732 46.1589 23.914 46.9495 23.6487C47.159 23.578 47.2883 23.3719 47.2537 23.1535L46.9577 21.2344L46.9668 21.2212L46.9686 21.2265ZM59.0445 10.5301C57.6601 10.5301 55.977 10.7423 54.7548 11.0696C54.518 11.1315 54.3723 11.3481 54.4087 11.5736L54.7238 13.5016C54.742 13.6192 54.8149 13.7253 54.9151 13.7961C55.0171 13.8668 55.1446 13.8845 55.2685 13.8668C56.4033 13.6546 57.5763 13.5307 58.5691 13.5307C60.5363 13.5307 60.8533 13.9375 60.8533 15.2287V16.3607H57.9388C55.1446 16.3607 53.9497 17.475 53.9497 20.1104C53.9497 22.622 55.2612 24.0546 57.5381 24.0546C58.8623 24.0546 60.1848 23.7009 61.2959 23.0465L61.4143 23.4586C61.469 23.6532 61.6511 23.7858 61.8606 23.7858H64.0792C64.3343 23.7858 64.5401 23.5824 64.5401 23.3348V15.2694C64.5401 11.8027 63.0555 10.5115 59.0573 10.5115L59.0409 10.5204L59.0445 10.5301ZM97.8551 10.5301C96.4707 10.5301 94.7949 10.7423 93.5745 11.0696C93.3468 11.1315 93.2011 11.3481 93.2421 11.5736L93.5608 13.5016C93.579 13.6192 93.6519 13.7253 93.7521 13.7961C93.8559 13.8668 93.9834 13.8845 94.1073 13.8668C95.2366 13.6546 96.4024 13.5307 97.4043 13.5307C99.3715 13.5307 99.6812 13.9375 99.6812 15.2287V16.3607H96.7667C93.9616 16.3607 92.7666 17.475 92.7666 20.1104C92.7666 22.622 94.0754 24.0546 96.3551 24.0546C97.6784 24.0546 98.9963 23.7009 100.107 23.0465L100.226 23.4586C100.28 23.6532 100.463 23.7858 100.672 23.7858H102.876C103.131 23.7858 103.341 23.5824 103.341 23.3348V15.2694C103.341 11.8027 101.856 10.5115 97.8578 10.5115L97.8624 10.5204L97.8551 10.5301ZM22.4498 5.89604C22.3587 5.82972 22.254 5.79611 22.1465 5.79611C22.0737 5.79611 22.019 5.80672 21.9644 5.82795C20.8714 6.22945 19.7785 6.53544 18.7767 6.76006C18.5763 6.81313 18.3978 6.95462 18.3395 7.1315C17.6109 9.07709 15.7347 10.9343 13.7857 12.8622C13.7128 12.9329 13.6035 13.039 13.4214 13.039C13.2392 13.039 13.1299 12.9506 13.057 12.8745C11.0898 10.9378 9.23181 9.09832 8.5032 7.15272C8.43034 6.97585 8.2664 6.83435 8.06603 6.78129C7.06418 6.55136 5.95304 6.24183 4.87834 5.84387C4.82369 5.82618 4.75447 5.81733 4.69618 5.81733C4.58689 5.81733 4.48124 5.85271 4.39199 5.91727C4.25355 6.01455 4.18251 6.18258 4.1989 6.34176C4.36284 7.95661 5.0277 9.53431 6.2117 11.1881C7.33195 12.7445 8.78007 14.1861 10.1918 15.578C12.7783 18.1427 15.2283 20.5658 15.4451 23.3781C15.4633 23.6293 15.6819 23.8256 15.9405 23.8256H18.9825C19.1191 23.8256 19.2521 23.7725 19.3468 23.6753C19.4415 23.578 19.4925 23.4489 19.4834 23.3162C19.3869 21.4387 18.6583 19.5577 17.2557 17.5652C16.9642 17.1496 16.6546 16.7427 16.324 16.3448C16.191 16.1856 16.2475 15.9822 16.3495 15.8831L16.6591 15.5789C18.0681 14.1905 19.5189 12.749 20.6392 11.1925C21.8232 9.54315 22.4789 7.97341 22.6474 6.35945C22.6657 6.19584 22.5892 6.02339 22.4544 5.92346L22.4635 5.91019L22.4498 5.89604ZM13.4332 7.3464C14.3868 7.3464 14.9405 7.28714 15.1336 7.28714C15.3522 7.28714 15.589 7.46402 15.589 7.72933C15.589 7.80007 15.5708 7.85314 15.5525 7.9062C15.425 8.23164 14.8421 9.41315 13.7674 10.4266C13.6399 10.5398 13.5124 10.5611 13.4214 10.5611C13.3303 10.5611 13.1846 10.5398 13.0625 10.4266C11.9878 9.41315 11.4122 8.23341 11.2865 7.90266C11.2683 7.8496 11.2501 7.79654 11.2501 7.71694C11.2501 7.46048 11.4741 7.26592 11.7091 7.26592C11.904 7.26592 12.4559 7.31898 13.4104 7.31898H13.4141L13.4323 7.33667L13.4332 7.3464ZM90.7593 5.8191H88.0343C87.7793 5.8191 87.5716 6.01366 87.5716 6.26128V8.596C87.5716 8.84362 87.7793 9.04526 88.0343 9.04526H90.7666C91.0216 9.04526 91.2283 8.8507 91.2283 8.60308V6.24979C91.2283 6.00217 91.0216 5.80318 90.7666 5.80318L90.7593 5.82441V5.8191ZM26.7395 0.24939C26.6184 0.0902049 26.4299 0.00176872 26.2295 0.00176872C26.1266 0.00176872 26.0246 0.0229934 25.938 0.0725177C22.2039 2.05349 17.8805 3.10234 13.4286 3.10411C8.97862 3.10411 4.65429 2.05349 0.923777 0.070749C0.8327 0.0176872 0.732516 3.26815e-09 0.632331 3.26815e-09C0.431962 3.26815e-09 0.2407 0.0884362 0.1223 0.247621C-0.0543889 0.459868 -0.0598536 0.848988 0.2407 1.07892C2.10778 2.42315 4.16794 3.48439 6.36107 4.20956C8.63799 4.95243 11.0133 5.34155 13.4286 5.34155C15.8458 5.34155 18.2229 4.95243 20.4962 4.20956C22.6912 3.48439 24.7513 2.42315 26.622 1.07892C26.9226 0.848988 26.9135 0.459868 26.7404 0.229934V0.24939H26.7395Z"/>
</symbol>

<symbol id="audi" viewBox="0 0 117 29">
    <path fill-rule="evenodd" clip-rule="evenodd" d="M105.422 17.6368C105.422 15.3331 104.452 12.6667 101.434 8.94974L94.1571 0H84.0257L89.7936 6.27897C90.7654 7.32605 92.0032 8.26702 92.0032 8.26702C90.6006 7.48259 88.8246 7.16864 87.422 7.16864C84.0813 7.16864 80.6859 7.8496 77.6676 9.47152C74.4344 11.1978 72.2759 14.0764 72.2759 17.8977C72.2759 20.8276 73.6257 23.0783 75.3497 24.8046C79.2296 28.5746 86.2908 28.9399 88.8783 28.9399C92.7054 28.9399 98.6891 28.1015 102.083 25.1194C104.079 23.3401 105.425 20.8807 105.425 17.6377L105.422 17.6368ZM116.578 7.74524H107.793V28.2598H116.578V7.74524ZM44.3572 28.2598L24.9532 0H14.0668L17.0751 3.45343L0 28.2598H9.80898L12.7353 23.6027H31.2366L34.224 28.258H44.3572V28.2598ZM70.0655 19.6771V7.74524H61.5516V16.9037C61.5516 19.5214 61.4423 20.2519 61.2811 20.932C60.6891 22.8157 58.6399 23.6523 56.536 23.6523C53.6261 23.6523 52.2781 22.553 51.7408 20.8258C51.5768 20.251 51.5249 19.6249 51.4712 18.9952C51.4166 18.316 51.4712 17.5829 51.4712 16.7976V7.74524H42.848V19.7283C42.848 22.3991 43.7634 24.3863 45.2725 25.7482C47.8591 28.2067 52.2253 28.9407 56.2682 28.9407C61.1736 28.9407 64.9478 28.2598 67.6419 25.6951C69.0445 24.3863 70.0682 22.66 70.0682 19.6771H70.0655ZM97.0151 17.8977C97.0151 20.0423 95.5597 21.6651 93.7272 22.5548C92.219 23.3401 90.4394 23.5488 88.8756 23.5488C87.3127 23.5488 85.4802 23.2366 83.9711 22.5026C82.1386 21.6138 80.7379 19.8866 80.7379 18.0012C80.7379 15.7523 82.5157 13.9729 84.6177 13.0824C85.911 12.5058 87.4748 12.2971 88.7135 12.2971C89.8993 12.2971 91.6252 12.4536 92.9713 12.978C95.3976 13.9729 97.0151 15.8557 97.0151 17.8977ZM27.8167 18.0879H16.0906L21.934 8.726L27.8176 18.0879H27.8167Z"/>
</symbol>

</svg>