<svg width="117" height="25" fill="none" xmlns="http://www.w3.org/2000/svg"><path fill-rule="evenodd" clip-rule="evenodd" d="M15.13 5.867c-2.06-.148-3.807 1.117-4.78 1.117-.99 0-2.514-1.085-4.13-1.057-2.123.032-4.08 1.2-5.174 3.046-2.205 3.717-.562 9.223 1.585 12.237 1.05 1.475 2.303 3.134 3.948 3.074 1.585-.061 2.183-.997 4.098-.997 1.913 0 2.454.997 4.128.965 1.704-.03 2.785-1.502 3.827-2.985 1.207-1.71 1.704-3.364 1.733-3.454-.038-.013-3.324-1.24-3.356-4.914-.03-3.071 2.582-4.549 2.702-4.62-1.484-2.12-3.774-2.354-4.581-2.412zm82.296 11.997v.326c0 3.207-2.416 6.077-7.265 6.077-4.836 0-7.71-2.948-7.71-8.1v-2.15c0-5.1 2.888-8.139 7.722-8.139 4.54 0 7.253 2.779 7.253 6.248v.182h-3.64c0-1.76-1.155-3.326-3.586-3.326-2.592 0-3.896 1.683-3.896 5.034v2.152c0 3.39 1.291 4.97 3.922 4.97 2.62 0 3.56-1.436 3.56-3.274h3.64zm-66.2 1.017h.053l3.265-12.715h3.854l3.277 12.715h.054l3.036-12.715h4.056l-5.09 17.802h-3.856l-3.37-12.169h-.068l-3.372 12.169h-3.827L24.134 6.166h4.057l3.035 12.715zm74.043-5.569h7.494V6.166h3.815v17.802h-3.815v-7.59h-7.494v7.59h-3.8V6.166h3.8v7.146zM79.993 6.166v3.077h-5.466v14.725H70.74V9.243h-5.452V6.166h14.706zm-20.536 0l5.896 17.801h-4.07l-1.307-4.486h-5.799l-1.328 4.486h-3.8l5.91-17.801h4.498zm-.276 10.577l-2.06-7.069h-.04l-2.093 7.069h4.193zM13.775 3.972c-.88.98-2.265 1.725-3.625 1.623-.193-1.393.518-2.847 1.326-3.756C12.38.814 13.901.048 15.16 0c.162 1.42-.428 2.851-1.302 3.875l-.04.049-.043.048z" fill="#D6DAE5"/></svg>