<svg width="117" height="29" fill="none" xmlns="http://www.w3.org/2000/svg"><path fill-rule="evenodd" clip-rule="evenodd" d="M105.422 17.637c0-2.304-.97-4.97-3.988-8.687L94.157 0H84.026l5.768 6.279c.971 1.047 2.21 1.988 2.21 1.988-1.403-.784-3.18-1.098-4.582-1.098-3.34 0-6.736.68-9.754 2.303-3.234 1.726-5.392 4.604-5.392 8.426 0 2.93 1.35 5.18 3.074 6.907 3.88 3.77 10.94 4.135 13.528 4.135 3.827 0 9.811-.838 13.205-3.82 1.996-1.78 3.342-4.24 3.342-7.482l-.003-.001zm11.156-9.892h-8.785V28.26h8.785V7.745zM44.358 28.26L24.952 0H14.067l3.008 3.453L0 28.26h9.809l2.926-4.657h18.502l2.987 4.655h10.133v.002zm25.708-8.583V7.745h-8.514v9.159c0 2.617-.11 3.348-.27 4.028-.593 1.884-2.642 2.72-4.746 2.72-2.91 0-4.258-1.099-4.795-2.826-.164-.575-.216-1.201-.27-1.83-.054-.68 0-1.413 0-2.198V7.745h-8.623v11.983c0 2.671.915 4.658 2.425 6.02 2.586 2.459 6.952 3.193 10.995 3.193 4.906 0 8.68-.681 11.374-3.246 1.403-1.309 2.426-3.035 2.426-6.018h-.002zm26.95-1.78c0 2.145-1.456 3.768-3.289 4.658-1.508.785-3.288.994-4.851.994-1.563 0-3.396-.312-4.905-1.046-1.832-.89-3.233-2.616-3.233-4.502 0-2.249 1.778-4.028 3.88-4.919 1.293-.576 2.857-.785 4.096-.785 1.185 0 2.911.157 4.257.681 2.427.995 4.044 2.878 4.044 4.92zm-69.2.19H16.092l5.843-9.361 5.884 9.362h-.001z" fill="#D6DAE5"/></svg>