<svg xmlns="http://www.w3.org/2000/svg" >
    <symbol id="point1" viewBox="0 0 1440 465">
     <g class="diagram__point" filter="url(#filter0_d)">
                                <circle cx="1332.5" cy="134.5" r="7.5" fill="white"/>
                                <circle cx="1332.5" cy="134.5" r="6.5" stroke="#5E80FE" stroke-width="2"/>
                                </g>

                                <filter id="filter0_d" x="1310" y="112" width="45" height="45" filterUnits="userSpaceOnUse" color-interpolation-filters="sRGB">
                                <feFlood flood-opacity="0" result="BackgroundImageFix"/>
                                <feColorMatrix in="SourceAlpha" type="matrix" values="0 0 0 0 0 0 0 0 0 0 0 0 0 0 0 0 0 0 127 0" result="hardAlpha"/>
                                <feOffset/>
                                <feGaussianBlur stdDeviation="7.5"/>
                                <feColorMatrix type="matrix" values="0 0 0 0 0.323144 0 0 0 0 0.512664 0 0 0 0 1 0 0 0 0.25 0"/>
                                <feBlend mode="normal" in2="BackgroundImageFix" result="effect1_dropShadow"/>
                                <feBlend mode="normal" in="SourceGraphic" in2="effect1_dropShadow" result="shape"/>
                                </filter>

    </symbol>

    <symbol id="baloon1" viewBox="0 0 1440 465">
        <g   filter="url(#filter1_d)">
                                    <mask id="path-6-inside-1" fill="white">
                                    <path fill-rule="evenodd" clip-rule="evenodd" d="M1378 48C1378 46.3431 1376.66 45 1375 45H1289C1287.34 45 1286 46.3431 1286 48V105.26C1286 106.917 1287.34 108.26 1289 108.26H1325.67C1326.67 108.26 1327.6 108.754 1328.15 109.579L1329.51 111.591C1330.7 113.35 1333.3 113.35 1334.48 111.591L1335.85 109.579C1336.4 108.754 1337.33 108.26 1338.33 108.26H1375C1376.66 108.26 1378 106.917 1378 105.26V48Z"/>
                                    </mask>
                                    <path fill-rule="evenodd" clip-rule="evenodd" d="M1378 48C1378 46.3431 1376.66 45 1375 45H1289C1287.34 45 1286 46.3431 1286 48V105.26C1286 106.917 1287.34 108.26 1289 108.26H1325.67C1326.67 108.26 1327.6 108.754 1328.15 109.579L1329.51 111.591C1330.7 113.35 1333.3 113.35 1334.48 111.591L1335.85 109.579C1336.4 108.754 1337.33 108.26 1338.33 108.26H1375C1376.66 108.26 1378 106.917 1378 105.26V48Z" fill="white"/>
                                    <path d="M1335.85 109.579L1335.02 109.019L1335.85 109.579ZM1329.51 111.591L1330.34 111.031L1329.51 111.591ZM1334.48 111.591L1335.31 112.151L1334.48 111.591ZM1289 46H1375V44H1289V46ZM1287 105.26V48H1285V105.26H1287ZM1325.67 107.26H1289V109.26H1325.67V107.26ZM1330.34 111.031L1328.98 109.019L1327.33 110.14L1328.69 112.151L1330.34 111.031ZM1335.02 109.019L1333.66 111.031L1335.31 112.151L1336.67 110.14L1335.02 109.019ZM1375 107.26H1338.33V109.26H1375V107.26ZM1377 48V105.26H1379V48H1377ZM1375 109.26C1377.21 109.26 1379 107.469 1379 105.26H1377C1377 106.365 1376.1 107.26 1375 107.26V109.26ZM1336.67 110.14C1337.05 109.59 1337.67 109.26 1338.33 109.26V107.26C1337 107.26 1335.76 107.919 1335.02 109.019L1336.67 110.14ZM1328.69 112.151C1330.27 114.497 1333.73 114.497 1335.31 112.151L1333.66 111.031C1332.86 112.204 1331.14 112.204 1330.34 111.031L1328.69 112.151ZM1325.67 109.26C1326.33 109.26 1326.95 109.59 1327.33 110.14L1328.98 109.019C1328.24 107.919 1327 107.26 1325.67 107.26V109.26ZM1285 105.26C1285 107.469 1286.79 109.26 1289 109.26V107.26C1287.9 107.26 1287 106.365 1287 105.26H1285ZM1375 46C1376.1 46 1377 46.8954 1377 48H1379C1379 45.7909 1377.21 44 1375 44V46ZM1289 44C1286.79 44 1285 45.7909 1285 48H1287C1287 46.8954 1287.9 46 1289 46V44Z" fill="#D8E0F7" mask="url(#path-6-inside-1)"/>
                                    <path d="M1315 78.25C1315 68.7231 1322.67 61 1332.13 61C1333.87 61 1335.55 61.2624 1337.14 61.75" stroke="#5F82FF" stroke-width="4" stroke-linecap="round" stroke-linejoin="round"/>
                                    <path fill-rule="evenodd" clip-rule="evenodd" d="M1328.44 81.9623C1330.48 84.0126 1333.78 84.0126 1335.81 81.9623C1337.85 79.912 1346.28 65.5 1345.53 64.75C1344.79 64 1330.48 72.4874 1328.44 74.5377C1326.41 76.5879 1326.41 79.912 1328.44 81.9623ZM1332.13 79.75C1332.95 79.75 1333.62 79.0785 1333.62 78.25C1333.62 77.4216 1332.95 76.75 1332.13 76.75C1331.3 76.75 1330.64 77.4216 1330.64 78.25C1330.64 79.0785 1331.3 79.75 1332.13 79.75Z" fill="#5F82FF"/>
                                    <ellipse cx="1317.23" cy="87.25" rx="1.48936" ry="1.5" fill="#5F82FF"/>
                                    <ellipse cx="1323.19" cy="93.25" rx="1.48936" ry="1.5" fill="#5F82FF"/>
                                    <ellipse cx="1332.13" cy="95.5" rx="1.48936" ry="1.5" fill="#5F82FF"/>
                                    <ellipse cx="1341.06" cy="93.25" rx="1.48936" ry="1.5" fill="#5F82FF"/>
                                    <ellipse cx="1346.28" cy="87.25" rx="1.48936" ry="1.5" fill="#5F82FF"/>
                                    <ellipse cx="1348.51" cy="78.25" rx="1.48936" ry="1.5" fill="#5F82FF"/>
            

                    <filter id="filter1_d" x="1256" y="25" width="152" height="127.911" filterUnits="userSpaceOnUse" color-interpolation-filters="sRGB">
                                    <feFlood flood-opacity="0" result="BackgroundImageFix"/>
                                    <feColorMatrix in="SourceAlpha" type="matrix" values="0 0 0 0 0 0 0 0 0 0 0 0 0 0 0 0 0 0 127 0" result="hardAlpha"/>
                                    <feOffset dy="10"/>
                                    <feGaussianBlur stdDeviation="15"/>
                                    <feColorMatrix type="matrix" values="0 0 0 0 0.894415 0 0 0 0 0.918495 0 0 0 0 0.984716 0 0 0 1 0"/>
                                    <feBlend mode="normal" in2="BackgroundImageFix" result="effect1_dropShadow"/>
                                    <feBlend mode="normal" in="SourceGraphic" in2="effect1_dropShadow" result="shape"/>
                    </filter>
                    </g>
    </symbol>

    <symbol id="point2" viewBox="0 0 1440 465">
        <g class="diagram__point2" filter="url(#filter2_d)">
                                <circle cx="924.5" cy="248.5" r="7.5" fill="white"/>
                                <circle cx="924.5" cy="248.5" r="6.5" stroke="#5E80FE" stroke-width="2"/>
                                </g>

                                 <filter id="filter2_d" x="902" y="226" width="45" height="45" filterUnits="userSpaceOnUse" color-interpolation-filters="sRGB">
                                <feFlood flood-opacity="0" result="BackgroundImageFix"/>
                                <feColorMatrix in="SourceAlpha" type="matrix" values="0 0 0 0 0 0 0 0 0 0 0 0 0 0 0 0 0 0 127 0" result="hardAlpha"/>
                                <feOffset/>
                                <feGaussianBlur stdDeviation="7.5"/>
                                <feColorMatrix type="matrix" values="0 0 0 0 0.323144 0 0 0 0 0.512664 0 0 0 0 1 0 0 0 0.25 0"/>
                                <feBlend mode="normal" in2="BackgroundImageFix" result="effect1_dropShadow"/>
                                <feBlend mode="normal" in="SourceGraphic" in2="effect1_dropShadow" result="shape"/>
                                </filter>
    </symbol>

    <symbol id="baloon2" viewBox="0 0 1440 465">
        <g filter="url(#filter3_d)">
                                <mask id="path-19-inside-2" fill="white">
                                <path fill-rule="evenodd" clip-rule="evenodd" d="M971 162C971 160.343 969.657 159 968 159H882C880.343 159 879 160.343 879 162V219.26C879 220.917 880.343 222.26 882 222.26H918.669C919.665 222.26 920.596 222.754 921.154 223.579L922.515 225.591C923.705 227.35 926.295 227.35 927.485 225.591L928.846 223.579C929.404 222.754 930.335 222.26 931.331 222.26H968C969.657 222.26 971 220.917 971 219.26V162Z"/>
                                </mask>
                                <path fill-rule="evenodd" clip-rule="evenodd" d="M971 162C971 160.343 969.657 159 968 159H882C880.343 159 879 160.343 879 162V219.26C879 220.917 880.343 222.26 882 222.26H918.669C919.665 222.26 920.596 222.754 921.154 223.579L922.515 225.591C923.705 227.35 926.295 227.35 927.485 225.591L928.846 223.579C929.404 222.754 930.335 222.26 931.331 222.26H968C969.657 222.26 971 220.917 971 219.26V162Z" fill="white"/>
                                <path d="M928.846 223.579L928.017 223.019L928.846 223.579ZM922.515 225.591L923.343 225.031L922.515 225.591ZM927.485 225.591L928.313 226.151L927.485 225.591ZM882 160H968V158H882V160ZM880 219.26V162H878V219.26H880ZM918.669 221.26H882V223.26H918.669V221.26ZM923.343 225.031L921.983 223.019L920.326 224.14L921.687 226.151L923.343 225.031ZM928.017 223.019L926.657 225.031L928.313 226.151L929.674 224.14L928.017 223.019ZM968 221.26H931.331V223.26H968V221.26ZM970 162V219.26H972V162H970ZM968 223.26C970.209 223.26 972 221.469 972 219.26H970C970 220.365 969.105 221.26 968 221.26V223.26ZM929.674 224.14C930.046 223.59 930.667 223.26 931.331 223.26V221.26C930.003 221.26 928.761 221.919 928.017 223.019L929.674 224.14ZM921.687 226.151C923.273 228.497 926.727 228.497 928.313 226.151L926.657 225.031C925.863 226.204 924.136 226.204 923.343 225.031L921.687 226.151ZM918.669 223.26C919.333 223.26 919.954 223.59 920.326 224.14L921.983 223.019C921.239 221.919 919.997 221.26 918.669 221.26V223.26ZM878 219.26C878 221.469 879.791 223.26 882 223.26V221.26C880.895 221.26 880 220.365 880 219.26H878ZM968 160C969.105 160 970 160.895 970 162H972C972 159.791 970.209 158 968 158V160ZM882 158C879.791 158 878 159.791 878 162H880C880 160.895 880.895 160 882 160V158Z" fill="#D8E0F7" mask="url(#path-19-inside-2)"/>
                                <path d="M908 192.25C908 182.723 915.668 175 925.128 175C926.871 175 928.554 175.262 930.139 175.75" stroke="#5F82FF" stroke-width="4" stroke-linecap="round" stroke-linejoin="round"/>
                                <path fill-rule="evenodd" clip-rule="evenodd" d="M921.442 195.962C923.477 198.013 926.778 198.013 928.814 195.962C930.849 193.912 939.276 179.5 938.532 178.75C937.787 178 923.477 186.487 921.442 188.538C919.406 190.588 919.406 193.912 921.442 195.962ZM925.128 193.75C925.95 193.75 926.617 193.078 926.617 192.25C926.617 191.422 925.95 190.75 925.128 190.75C924.305 190.75 923.638 191.422 923.638 192.25C923.638 193.078 924.305 193.75 925.128 193.75Z" fill="#5F82FF"/>
                                <ellipse cx="910.234" cy="201.25" rx="1.48936" ry="1.5" fill="#5F82FF"/>
                                <ellipse cx="916.192" cy="207.25" rx="1.48936" ry="1.5" fill="#5F82FF"/>
                                <ellipse cx="925.128" cy="209.5" rx="1.48936" ry="1.5" fill="#5F82FF"/>
                                <ellipse cx="934.064" cy="207.25" rx="1.48936" ry="1.5" fill="#5F82FF"/>
                                <ellipse cx="939.277" cy="201.25" rx="1.48936" ry="1.5" fill="#5F82FF"/>
                                <ellipse cx="941.511" cy="192.25" rx="1.48936" ry="1.5" fill="#5F82FF"/>

                            <filter id="filter3_d" x="849" y="139" width="152" height="127.911" filterUnits="userSpaceOnUse" color-interpolation-filters="sRGB">
                                <feFlood flood-opacity="0" result="BackgroundImageFix"/>
                                <feColorMatrix in="SourceAlpha" type="matrix" values="0 0 0 0 0 0 0 0 0 0 0 0 0 0 0 0 0 0 127 0" result="hardAlpha"/>
                                <feOffset dy="10"/>
                                <feGaussianBlur stdDeviation="15"/>
                                <feColorMatrix type="matrix" values="0 0 0 0 0.894415 0 0 0 0 0.918495 0 0 0 0 0.984716 0 0 0 1 0"/>
                                <feBlend mode="normal" in2="BackgroundImageFix" result="effect1_dropShadow"/>
                                <feBlend mode="normal" in="SourceGraphic" in2="effect1_dropShadow" result="shape"/>
                            </filter>
                        </g>
    
    
    </symbol>

    <symbol id="point3" viewBox="0 0 1440 465">
     <g class="diagram__point3" filter="url(#filter4_d)">
                                <circle cx="515.5" cy="389.5" r="7.5" fill="white"/>
                                <circle cx="515.5" cy="389.5" r="6.5" stroke="#5E80FE" stroke-width="2"/>
                                </g>
                                 <filter id="filter4_d" x="493" y="367" width="45" height="45" filterUnits="userSpaceOnUse" color-interpolation-filters="sRGB">
                                <feFlood flood-opacity="0" result="BackgroundImageFix"/>
                                <feColorMatrix in="SourceAlpha" type="matrix" values="0 0 0 0 0 0 0 0 0 0 0 0 0 0 0 0 0 0 127 0" result="hardAlpha"/>
                                <feOffset/>
                                <feGaussianBlur stdDeviation="7.5"/>
                                <feColorMatrix type="matrix" values="0 0 0 0 0.323144 0 0 0 0 0.512664 0 0 0 0 1 0 0 0 0.25 0"/>
                                <feBlend mode="normal" in2="BackgroundImageFix" result="effect1_dropShadow"/>
                                <feBlend mode="normal" in="SourceGraphic" in2="effect1_dropShadow" result="shape"/>
                                </filter>

    </symbol>

    <symbol id="baloon3" viewBox="0 0 1440 465">
        <g filter="url(#filter5_d)">
                                <mask id="path-32-inside-3" fill="white">
                                <path fill-rule="evenodd" clip-rule="evenodd" d="M562 303C562 301.343 560.657 300 559 300H473C471.343 300 470 301.343 470 303V360.26C470 361.917 471.343 363.26 473 363.26H509.669C510.665 363.26 511.596 363.754 512.154 364.579L513.515 366.591C514.705 368.35 517.295 368.35 518.485 366.591L519.846 364.579C520.403 363.754 521.335 363.26 522.331 363.26H559C560.657 363.26 562 361.917 562 360.26V303Z"/>
                                </mask>
                                <path fill-rule="evenodd" clip-rule="evenodd" d="M562 303C562 301.343 560.657 300 559 300H473C471.343 300 470 301.343 470 303V360.26C470 361.917 471.343 363.26 473 363.26H509.669C510.665 363.26 511.596 363.754 512.154 364.579L513.515 366.591C514.705 368.35 517.295 368.35 518.485 366.591L519.846 364.579C520.403 363.754 521.335 363.26 522.331 363.26H559C560.657 363.26 562 361.917 562 360.26V303Z" fill="white"/>
                                <path d="M519.846 364.579L519.017 364.019L519.846 364.579ZM513.515 366.591L514.343 366.031L513.515 366.591ZM512.154 364.579L511.326 365.14L512.154 364.579ZM473 301H559V299H473V301ZM471 360.26V303H469V360.26H471ZM509.669 362.26H473V364.26H509.669V362.26ZM514.343 366.031L512.983 364.019L511.326 365.14L512.687 367.151L514.343 366.031ZM519.017 364.019L517.657 366.031L519.313 367.151L520.674 365.14L519.017 364.019ZM559 362.26H522.331V364.26H559V362.26ZM561 303V360.26H563V303H561ZM559 364.26C561.209 364.26 563 362.469 563 360.26H561C561 361.365 560.105 362.26 559 362.26V364.26ZM520.674 365.14C521.046 364.59 521.667 364.26 522.331 364.26V362.26C521.003 362.26 519.761 362.919 519.017 364.019L520.674 365.14ZM512.687 367.151C514.273 369.497 517.727 369.497 519.313 367.151L517.657 366.031C516.864 367.204 515.136 367.204 514.343 366.031L512.687 367.151ZM509.669 364.26C510.333 364.26 510.954 364.59 511.326 365.14L512.983 364.019C512.239 362.919 510.997 362.26 509.669 362.26V364.26ZM469 360.26C469 362.469 470.791 364.26 473 364.26V362.26C471.895 362.26 471 361.365 471 360.26H469ZM559 301C560.105 301 561 301.895 561 303H563C563 300.791 561.209 299 559 299V301ZM473 299C470.791 299 469 300.791 469 303H471C471 301.895 471.895 301 473 301V299Z" fill="#D8E0F7" mask="url(#path-32-inside-3)"/>
                                <path d="M499 333.25C499 323.723 506.668 316 516.128 316C517.871 316 519.554 316.262 521.139 316.75" stroke="#5F82FF" stroke-width="4" stroke-linecap="round" stroke-linejoin="round"/>
                                <path fill-rule="evenodd" clip-rule="evenodd" d="M512.442 336.962C514.477 339.013 517.778 339.013 519.814 336.962C521.849 334.912 530.276 320.5 529.532 319.75C528.787 319 514.477 327.487 512.442 329.538C510.406 331.588 510.406 334.912 512.442 336.962ZM516.127 334.75C516.95 334.75 517.617 334.078 517.617 333.25C517.617 332.422 516.95 331.75 516.127 331.75C515.305 331.75 514.638 332.422 514.638 333.25C514.638 334.078 515.305 334.75 516.127 334.75Z" fill="#5F82FF"/>
                                <ellipse cx="501.234" cy="342.25" rx="1.48936" ry="1.5" fill="#5F82FF"/>
                                <ellipse cx="507.191" cy="348.25" rx="1.48936" ry="1.5" fill="#5F82FF"/>
                                <ellipse cx="516.128" cy="350.5" rx="1.48936" ry="1.5" fill="#5F82FF"/>
                                <ellipse cx="525.064" cy="348.25" rx="1.48936" ry="1.5" fill="#5F82FF"/>
                                <ellipse cx="530.277" cy="342.25" rx="1.48936" ry="1.5" fill="#5F82FF"/>
                                <ellipse cx="532.511" cy="333.25" rx="1.48936" ry="1.5" fill="#5F82FF"/>

                                <filter id="filter5_d" x="440" y="280" width="152" height="127.911" filterUnits="userSpaceOnUse" color-interpolation-filters="sRGB">
                                <feFlood flood-opacity="0" result="BackgroundImageFix"/>
                                <feColorMatrix in="SourceAlpha" type="matrix" values="0 0 0 0 0 0 0 0 0 0 0 0 0 0 0 0 0 0 127 0" result="hardAlpha"/>
                                <feOffset dy="10"/>
                                <feGaussianBlur stdDeviation="15"/>
                                <feColorMatrix type="matrix" values="0 0 0 0 0.894415 0 0 0 0 0.918495 0 0 0 0 0.984716 0 0 0 1 0"/>
                                <feBlend mode="normal" in2="BackgroundImageFix" result="effect1_dropShadow"/>
                                <feBlend mode="normal" in="SourceGraphic" in2="effect1_dropShadow" result="shape"/>
                                </filter>

        </g>
    
    </symbol>

    <symbol id="point4" viewBox="0 0 1440 465">
     <g class="diagram__point4" filter="url(#filter6_d)">
                                <circle cx="107.5" cy="419.5" r="7.5" fill="white"/>
                                <circle cx="107.5" cy="419.5" r="6.5" stroke="#5E80FE" stroke-width="2"/>
                                </g>
                                 <filter id="filter6_d" x="85" y="397" width="45" height="45" filterUnits="userSpaceOnUse" color-interpolation-filters="sRGB">
                                <feFlood flood-opacity="0" result="BackgroundImageFix"/>
                                <feColorMatrix in="SourceAlpha" type="matrix" values="0 0 0 0 0 0 0 0 0 0 0 0 0 0 0 0 0 0 127 0" result="hardAlpha"/>
                                <feOffset/>
                                <feGaussianBlur stdDeviation="7.5"/>
                                <feColorMatrix type="matrix" values="0 0 0 0 0.323144 0 0 0 0 0.512664 0 0 0 0 1 0 0 0 0.25 0"/>
                                <feBlend mode="normal" in2="BackgroundImageFix" result="effect1_dropShadow"/>
                                <feBlend mode="normal" in="SourceGraphic" in2="effect1_dropShadow" result="shape"/>
                                </filter>
    
    </symbol>

    <symbol id="baloon4" viewBox="0 0 1440 465">
        <g filter="url(#filter7_d)">
                                <mask id="path-45-inside-4" fill="white">
                                <path fill-rule="evenodd" clip-rule="evenodd" d="M154 333C154 331.343 152.657 330 151 330H65C63.3431 330 62 331.343 62 333V390.26C62 391.917 63.3431 393.26 65 393.26H101.669C102.665 393.26 103.596 393.754 104.154 394.579L105.515 396.591C106.705 398.35 109.295 398.35 110.485 396.591L111.846 394.579C112.404 393.754 113.335 393.26 114.331 393.26H151C152.657 393.26 154 391.917 154 390.26V333Z"/>
                                </mask>
                                <path fill-rule="evenodd" clip-rule="evenodd" d="M154 333C154 331.343 152.657 330 151 330H65C63.3431 330 62 331.343 62 333V390.26C62 391.917 63.3431 393.26 65 393.26H101.669C102.665 393.26 103.596 393.754 104.154 394.579L105.515 396.591C106.705 398.35 109.295 398.35 110.485 396.591L111.846 394.579C112.404 393.754 113.335 393.26 114.331 393.26H151C152.657 393.26 154 391.917 154 390.26V333Z" fill="white"/>
                                <path d="M111.846 394.579L111.017 394.019L111.846 394.579ZM105.515 396.591L106.343 396.031L105.515 396.591ZM110.485 396.591L111.313 397.151L110.485 396.591ZM65 331H151V329H65V331ZM63 390.26V333H61V390.26H63ZM101.669 392.26H65V394.26H101.669V392.26ZM106.343 396.031L104.983 394.019L103.326 395.14L104.687 397.151L106.343 396.031ZM111.017 394.019L109.657 396.031L111.313 397.151L112.674 395.14L111.017 394.019ZM151 392.26H114.331V394.26H151V392.26ZM153 333V390.26H155V333H153ZM151 394.26C153.209 394.26 155 392.469 155 390.26H153C153 391.365 152.105 392.26 151 392.26V394.26ZM112.674 395.14C113.046 394.59 113.667 394.26 114.331 394.26V392.26C113.003 392.26 111.761 392.919 111.017 394.019L112.674 395.14ZM104.687 397.151C106.273 399.497 109.727 399.497 111.313 397.151L109.657 396.031C108.863 397.204 107.136 397.204 106.343 396.031L104.687 397.151ZM101.669 394.26C102.333 394.26 102.954 394.59 103.326 395.14L104.983 394.019C104.239 392.919 102.997 392.26 101.669 392.26V394.26ZM61 390.26C61 392.469 62.7909 394.26 65 394.26V392.26C63.8954 392.26 63 391.365 63 390.26H61ZM151 331C152.105 331 153 331.895 153 333H155C155 330.791 153.209 329 151 329V331ZM65 329C62.7909 329 61 330.791 61 333H63C63 331.895 63.8954 331 65 331V329Z" fill="#D8E0F7" mask="url(#path-45-inside-4)"/>
                                <path d="M91 363.25C91 353.723 98.6683 346 108.128 346C109.871 346 111.554 346.262 113.139 346.75" stroke="#5F82FF" stroke-width="4" stroke-linecap="round" stroke-linejoin="round"/>
                                <path fill-rule="evenodd" clip-rule="evenodd" d="M104.442 366.962C106.477 369.013 109.778 369.013 111.814 366.962C113.849 364.912 122.276 350.5 121.532 349.75C120.787 349 106.477 357.487 104.442 359.538C102.406 361.588 102.406 364.912 104.442 366.962ZM108.128 364.75C108.95 364.75 109.617 364.078 109.617 363.25C109.617 362.422 108.95 361.75 108.128 361.75C107.305 361.75 106.638 362.422 106.638 363.25C106.638 364.078 107.305 364.75 108.128 364.75Z" fill="#5F82FF"/>
                                <ellipse cx="93.234" cy="372.25" rx="1.48936" ry="1.5" fill="#5F82FF"/>
                                <ellipse cx="99.1915" cy="378.25" rx="1.48936" ry="1.5" fill="#5F82FF"/>
                                <ellipse cx="108.128" cy="380.5" rx="1.48936" ry="1.5" fill="#5F82FF"/>
                                <ellipse cx="117.064" cy="378.25" rx="1.48936" ry="1.5" fill="#5F82FF"/>
                                <ellipse cx="122.277" cy="372.25" rx="1.48936" ry="1.5" fill="#5F82FF"/>
                                <ellipse cx="124.511" cy="363.25" rx="1.48936" ry="1.5" fill="#5F82FF"/>

                                 <filter id="filter7_d" x="32" y="310" width="152" height="127.911" filterUnits="userSpaceOnUse" color-interpolation-filters="sRGB">
                                <feFlood flood-opacity="0" result="BackgroundImageFix"/>
                                <feColorMatrix in="SourceAlpha" type="matrix" values="0 0 0 0 0 0 0 0 0 0 0 0 0 0 0 0 0 0 127 0" result="hardAlpha"/>
                                <feOffset dy="10"/>
                                <feGaussianBlur stdDeviation="15"/>
                                <feColorMatrix type="matrix" values="0 0 0 0 0.894415 0 0 0 0 0.918495 0 0 0 0 0.984716 0 0 0 1 0"/>
                                <feBlend mode="normal" in2="BackgroundImageFix" result="effect1_dropShadow"/>
                                <feBlend mode="normal" in="SourceGraphic" in2="effect1_dropShadow" result="shape"/>
                                </filter>
        </g> 
    </symbol>

</svg>