<svg width="67" height="68" fill="none" xmlns="http://www.w3.org/2000/svg"><path d="M2 33.625C2 16.159 16.241 2 33.809 2c3.237 0 6.362.481 9.306 1.375" stroke="#fff" stroke-width="4" stroke-linecap="round" stroke-linejoin="round"/><path fill-rule="evenodd" clip-rule="evenodd" d="M26.963 40.43c3.78 3.76 9.91 3.76 13.69 0 3.781-3.758 19.432-30.18 18.049-31.555C57.319 7.5 30.744 23.06 26.962 26.819a9.586 9.586 0 000 13.612zm6.845-4.055a2.758 2.758 0 002.766-2.75 2.758 2.758 0 00-2.766-2.75 2.758 2.758 0 00-2.766 2.75 2.758 2.758 0 002.766 2.75z" fill="#fff"/><ellipse cx="6.149" cy="50.125" rx="2.766" ry="2.75" fill="#fff"/><ellipse cx="17.213" cy="61.125" rx="2.766" ry="2.75" fill="#fff"/><ellipse cx="33.808" cy="65.25" rx="2.766" ry="2.75" fill="#fff"/><ellipse cx="50.404" cy="61.125" rx="2.766" ry="2.75" fill="#fff"/><ellipse cx="60.085" cy="50.125" rx="2.766" ry="2.75" fill="#fff"/><ellipse cx="64.234" cy="33.625" rx="2.766" ry="2.75" fill="#fff"/></svg>