<svg xmlns="http://www.w3.org/2000/svg"><symbol id="facebook" viewBox="0 0 9 17"><path d="M5.656 17V9.245h2.569l.385-3.022H5.656V4.294c0-.875.24-1.471 1.478-1.471h1.58V.118A21.19 21.19 0 006.412 0C4.135 0 2.576 1.408 2.576 3.995v2.228H0v3.022h2.576V17h3.08z"/></symbol><symbol id="telegram" viewBox="0 0 15 13"><path d="M5.82 12.023c-.438 0-.364-.158-.515-.557L4.018 7.413l9.91-5.623"/><path d="M5.82 12.023c.338 0 .487-.148.676-.323l1.801-1.676L6.05 8.728"/><path d="M6.05 8.728l5.446 3.849c.621.328 1.07.158 1.224-.552l2.217-9.993c.227-.87-.346-1.265-.941-1.007L.978 5.827c-.888.34-.883.815-.162 1.026l3.341.997 7.734-4.667c.365-.211.7-.098.425.136"/></symbol><symbol id="twitter" viewBox="0 0 26 22"><path fill-rule="evenodd" clip-rule="evenodd" d="M21.033 1.84a6.642 6.642 0 01-1.945.549A3.477 3.477 0 0020.577.463a6.673 6.673 0 01-2.151.845A3.34 3.34 0 0015.954.211c-1.87 0-3.388 1.558-3.388 3.48 0 .272.03.538.088.792C9.839 4.338 7.342 2.952 5.672.847a3.536 3.536 0 00-.458 1.75c0 1.207.597 2.272 1.506 2.896a3.308 3.308 0 01-1.534-.436v.044c0 1.687 1.169 3.092 2.717 3.412a3.3 3.3 0 01-1.528.06c.43 1.383 1.682 2.389 3.164 2.417a6.686 6.686 0 01-5.015 1.44 9.402 9.402 0 005.192 1.564c6.23 0 9.637-5.302 9.637-9.9a9.59 9.59 0 00-.01-.45 6.976 6.976 0 001.69-1.803"/></symbol><symbol id="medium" viewBox="0 0 17 14"><path d="M17 2.107h-.653c-.242 0-.585.344-.585.564v7.987c0 .22.343.522.585.522H17v1.896h-5.916V11.18h1.238V2.784h-.06L9.37 13.075H7.131L4.277 2.784h-.072v8.396h1.238v1.896H.49V11.18h.634c.261 0 .604-.301.604-.522V2.671c0-.22-.343-.564-.604-.564H.49V.21h6.194l2.033 7.448h.056L10.825.21H17v1.896z"/></symbol></svg>