<svg xmlns="http://www.w3.org/2000/svg"><symbol id="point1" viewBox="0 0 1440 465"><g class="diagram__point" filter="url(#filter0_d)"><circle cx="1332.5" cy="134.5" r="7.5" fill="#fff"/><circle cx="1332.5" cy="134.5" r="6.5" stroke="#5E80FE" stroke-width="2"/></g><filter id="filter0_d" x="1310" y="112" width="45" height="45" filterUnits="userSpaceOnUse" color-interpolation-filters="sRGB"><feFlood flood-opacity="0" result="BackgroundImageFix"/><feColorMatrix in="SourceAlpha" values="0 0 0 0 0 0 0 0 0 0 0 0 0 0 0 0 0 0 127 0" result="hardAlpha"/><feOffset/><feGaussianBlur stdDeviation="7.5"/><feColorMatrix values="0 0 0 0 0.323144 0 0 0 0 0.512664 0 0 0 0 1 0 0 0 0.25 0"/><feBlend in2="BackgroundImageFix" result="effect1_dropShadow"/><feBlend in="SourceGraphic" in2="effect1_dropShadow" result="shape"/></filter></symbol><symbol id="baloon1" viewBox="0 0 1440 465"><g filter="url(#filter1_d)"><mask id="path-6-inside-1" fill="#fff"><path fill-rule="evenodd" clip-rule="evenodd" d="M1378 48c0-1.657-1.34-3-3-3h-86c-1.66 0-3 1.343-3 3v57.26c0 1.657 1.34 3 3 3h36.67c1 0 1.93.494 2.48 1.319l1.36 2.012c1.19 1.759 3.79 1.759 4.97 0l1.37-2.012a2.975 2.975 0 012.48-1.319H1375c1.66 0 3-1.343 3-3V48z"/></mask><path fill-rule="evenodd" clip-rule="evenodd" d="M1378 48c0-1.657-1.34-3-3-3h-86c-1.66 0-3 1.343-3 3v57.26c0 1.657 1.34 3 3 3h36.67c1 0 1.93.494 2.48 1.319l1.36 2.012c1.19 1.759 3.79 1.759 4.97 0l1.37-2.012a2.975 2.975 0 012.48-1.319H1375c1.66 0 3-1.343 3-3V48z" fill="#fff"/><path d="M1335.85 109.579l-.83-.56.83.56zm-6.34 2.012l.83-.56-.83.56zm4.97 0l.83.56-.83-.56zM1289 46h86v-2h-86v2zm-2 59.26V48h-2v57.26h2zm38.67 2H1289v2h36.67v-2zm4.67 3.771l-1.36-2.012-1.65 1.121 1.36 2.011 1.65-1.12zm4.68-2.012l-1.36 2.012 1.65 1.12 1.36-2.011-1.65-1.121zm39.98-1.759h-36.67v2H1375v-2zm2-59.26v57.26h2V48h-2zm-2 61.26a4 4 0 004-4h-2c0 1.105-.9 2-2 2v2zm-38.33.88c.38-.55 1-.88 1.66-.88v-2c-1.33 0-2.57.659-3.31 1.759l1.65 1.121zm-7.98 2.011c1.58 2.346 5.04 2.346 6.62 0l-1.65-1.12a2.006 2.006 0 01-3.32 0l-1.65 1.12zm-3.02-2.891c.66 0 1.28.33 1.66.88l1.65-1.121a3.986 3.986 0 00-3.31-1.759v2zm-40.67-4a4 4 0 004 4v-2c-1.1 0-2-.895-2-2h-2zM1375 46c1.1 0 2 .895 2 2h2a4 4 0 00-4-4v2zm-86-2a4 4 0 00-4 4h2c0-1.105.9-2 2-2v-2z" fill="#D8E0F7" mask="url(#path-6-inside-1)"/><path d="M1315 78.25c0-9.527 7.67-17.25 17.13-17.25 1.74 0 3.42.262 5.01.75" stroke="#5F82FF" stroke-width="4" stroke-linecap="round" stroke-linejoin="round"/><path fill-rule="evenodd" clip-rule="evenodd" d="M1328.44 81.962a5.184 5.184 0 007.37 0c2.04-2.05 10.47-16.462 9.72-17.212-.74-.75-15.05 7.737-17.09 9.788a5.287 5.287 0 000 7.424zm3.69-2.212c.82 0 1.49-.671 1.49-1.5 0-.828-.67-1.5-1.49-1.5-.83 0-1.49.672-1.49 1.5 0 .829.66 1.5 1.49 1.5z" fill="#5F82FF"/><ellipse cx="1317.23" cy="87.25" rx="1.489" ry="1.5" fill="#5F82FF"/><ellipse cx="1323.19" cy="93.25" rx="1.489" ry="1.5" fill="#5F82FF"/><ellipse cx="1332.13" cy="95.5" rx="1.489" ry="1.5" fill="#5F82FF"/><ellipse cx="1341.06" cy="93.25" rx="1.489" ry="1.5" fill="#5F82FF"/><ellipse cx="1346.28" cy="87.25" rx="1.489" ry="1.5" fill="#5F82FF"/><ellipse cx="1348.51" cy="78.25" rx="1.489" ry="1.5" fill="#5F82FF"/><filter id="filter1_d" x="1256" y="25" width="152" height="127.911" filterUnits="userSpaceOnUse" color-interpolation-filters="sRGB"><feFlood flood-opacity="0" result="BackgroundImageFix"/><feColorMatrix in="SourceAlpha" values="0 0 0 0 0 0 0 0 0 0 0 0 0 0 0 0 0 0 127 0" result="hardAlpha"/><feOffset dy="10"/><feGaussianBlur stdDeviation="15"/><feColorMatrix values="0 0 0 0 0.894415 0 0 0 0 0.918495 0 0 0 0 0.984716 0 0 0 1 0"/><feBlend in2="BackgroundImageFix" result="effect1_dropShadow"/><feBlend in="SourceGraphic" in2="effect1_dropShadow" result="shape"/></filter></g></symbol><symbol id="point2" viewBox="0 0 1440 465"><g class="diagram__point2" filter="url(#filter2_d)"><circle cx="924.5" cy="248.5" r="7.5" fill="#fff"/><circle cx="924.5" cy="248.5" r="6.5" stroke="#5E80FE" stroke-width="2"/></g><filter id="filter2_d" x="902" y="226" width="45" height="45" filterUnits="userSpaceOnUse" color-interpolation-filters="sRGB"><feFlood flood-opacity="0" result="BackgroundImageFix"/><feColorMatrix in="SourceAlpha" values="0 0 0 0 0 0 0 0 0 0 0 0 0 0 0 0 0 0 127 0" result="hardAlpha"/><feOffset/><feGaussianBlur stdDeviation="7.5"/><feColorMatrix values="0 0 0 0 0.323144 0 0 0 0 0.512664 0 0 0 0 1 0 0 0 0.25 0"/><feBlend in2="BackgroundImageFix" result="effect1_dropShadow"/><feBlend in="SourceGraphic" in2="effect1_dropShadow" result="shape"/></filter></symbol><symbol id="baloon2" viewBox="0 0 1440 465"><g filter="url(#filter3_d)"><mask id="path-19-inside-2" fill="#fff"><path fill-rule="evenodd" clip-rule="evenodd" d="M971 162a3 3 0 00-3-3h-86a3 3 0 00-3 3v57.26a3 3 0 003 3h36.669a3 3 0 012.485 1.319l1.361 2.012c1.19 1.759 3.78 1.759 4.97 0l1.361-2.012a3 3 0 012.485-1.319H968a3 3 0 003-3V162z"/></mask><path fill-rule="evenodd" clip-rule="evenodd" d="M971 162a3 3 0 00-3-3h-86a3 3 0 00-3 3v57.26a3 3 0 003 3h36.669a3 3 0 012.485 1.319l1.361 2.012c1.19 1.759 3.78 1.759 4.97 0l1.361-2.012a3 3 0 012.485-1.319H968a3 3 0 003-3V162z" fill="#fff"/><path d="M928.846 223.579l-.829-.56.829.56zm-6.331 2.012l.828-.56-.828.56zm4.97 0l.828.56-.828-.56zM882 160h86v-2h-86v2zm-2 59.26V162h-2v57.26h2zm38.669 2H882v2h36.669v-2zm4.674 3.771l-1.36-2.012-1.657 1.121 1.361 2.011 1.656-1.12zm4.674-2.012l-1.36 2.012 1.656 1.12 1.361-2.011-1.657-1.121zM968 221.26h-36.669v2H968v-2zm2-59.26v57.26h2V162h-2zm-2 61.26a4 4 0 004-4h-2a2 2 0 01-2 2v2zm-38.326.88c.372-.55.993-.88 1.657-.88v-2c-1.328 0-2.57.659-3.314 1.759l1.657 1.121zm-7.987 2.011c1.586 2.346 5.04 2.346 6.626 0l-1.656-1.12a2 2 0 01-3.314 0l-1.656 1.12zm-3.018-2.891c.664 0 1.285.33 1.657.88l1.657-1.121a4.001 4.001 0 00-3.314-1.759v2zm-40.669-4a4 4 0 004 4v-2a2 2 0 01-2-2h-2zM968 160a2 2 0 012 2h2a4 4 0 00-4-4v2zm-86-2a4 4 0 00-4 4h2a2 2 0 012-2v-2z" fill="#D8E0F7" mask="url(#path-19-inside-2)"/><path d="M908 192.25c0-9.527 7.668-17.25 17.128-17.25 1.743 0 3.426.262 5.011.75" stroke="#5F82FF" stroke-width="4" stroke-linecap="round" stroke-linejoin="round"/><path fill-rule="evenodd" clip-rule="evenodd" d="M921.442 195.962a5.185 5.185 0 007.372 0c2.035-2.05 10.462-16.462 9.718-17.212-.745-.75-15.055 7.737-17.09 9.788a5.275 5.275 0 000 7.424zm3.686-2.212c.822 0 1.489-.672 1.489-1.5s-.667-1.5-1.489-1.5c-.823 0-1.49.672-1.49 1.5s.667 1.5 1.49 1.5z" fill="#5F82FF"/><ellipse cx="910.234" cy="201.25" rx="1.489" ry="1.5" fill="#5F82FF"/><ellipse cx="916.192" cy="207.25" rx="1.489" ry="1.5" fill="#5F82FF"/><ellipse cx="925.128" cy="209.5" rx="1.489" ry="1.5" fill="#5F82FF"/><ellipse cx="934.064" cy="207.25" rx="1.489" ry="1.5" fill="#5F82FF"/><ellipse cx="939.277" cy="201.25" rx="1.489" ry="1.5" fill="#5F82FF"/><ellipse cx="941.511" cy="192.25" rx="1.489" ry="1.5" fill="#5F82FF"/><filter id="filter3_d" x="849" y="139" width="152" height="127.911" filterUnits="userSpaceOnUse" color-interpolation-filters="sRGB"><feFlood flood-opacity="0" result="BackgroundImageFix"/><feColorMatrix in="SourceAlpha" values="0 0 0 0 0 0 0 0 0 0 0 0 0 0 0 0 0 0 127 0" result="hardAlpha"/><feOffset dy="10"/><feGaussianBlur stdDeviation="15"/><feColorMatrix values="0 0 0 0 0.894415 0 0 0 0 0.918495 0 0 0 0 0.984716 0 0 0 1 0"/><feBlend in2="BackgroundImageFix" result="effect1_dropShadow"/><feBlend in="SourceGraphic" in2="effect1_dropShadow" result="shape"/></filter></g></symbol><symbol id="point3" viewBox="0 0 1440 465"><g class="diagram__point3" filter="url(#filter4_d)"><circle cx="515.5" cy="389.5" r="7.5" fill="#fff"/><circle cx="515.5" cy="389.5" r="6.5" stroke="#5E80FE" stroke-width="2"/></g><filter id="filter4_d" x="493" y="367" width="45" height="45" filterUnits="userSpaceOnUse" color-interpolation-filters="sRGB"><feFlood flood-opacity="0" result="BackgroundImageFix"/><feColorMatrix in="SourceAlpha" values="0 0 0 0 0 0 0 0 0 0 0 0 0 0 0 0 0 0 127 0" result="hardAlpha"/><feOffset/><feGaussianBlur stdDeviation="7.5"/><feColorMatrix values="0 0 0 0 0.323144 0 0 0 0 0.512664 0 0 0 0 1 0 0 0 0.25 0"/><feBlend in2="BackgroundImageFix" result="effect1_dropShadow"/><feBlend in="SourceGraphic" in2="effect1_dropShadow" result="shape"/></filter></symbol><symbol id="baloon3" viewBox="0 0 1440 465"><g filter="url(#filter5_d)"><mask id="path-32-inside-3" fill="#fff"><path fill-rule="evenodd" clip-rule="evenodd" d="M562 303a3 3 0 00-3-3h-86a3 3 0 00-3 3v57.26a3 3 0 003 3h36.669a3 3 0 012.485 1.319l1.361 2.012c1.19 1.759 3.78 1.759 4.97 0l1.361-2.012a2.998 2.998 0 012.485-1.319H559a3 3 0 003-3V303z"/></mask><path fill-rule="evenodd" clip-rule="evenodd" d="M562 303a3 3 0 00-3-3h-86a3 3 0 00-3 3v57.26a3 3 0 003 3h36.669a3 3 0 012.485 1.319l1.361 2.012c1.19 1.759 3.78 1.759 4.97 0l1.361-2.012a2.998 2.998 0 012.485-1.319H559a3 3 0 003-3V303z" fill="#fff"/><path d="M519.846 364.579l-.829-.56.829.56zm-6.331 2.012l.828-.56-.828.56zm-1.361-2.012l-.828.561.828-.561zM473 301h86v-2h-86v2zm-2 59.26V303h-2v57.26h2zm38.669 2H473v2h36.669v-2zm4.674 3.771l-1.36-2.012-1.657 1.121 1.361 2.011 1.656-1.12zm4.674-2.012l-1.36 2.012 1.656 1.12 1.361-2.011-1.657-1.121zM559 362.26h-36.669v2H559v-2zm2-59.26v57.26h2V303h-2zm-2 61.26a4 4 0 004-4h-2a2 2 0 01-2 2v2zm-38.326.88c.372-.55.993-.88 1.657-.88v-2c-1.328 0-2.57.659-3.314 1.759l1.657 1.121zm-7.987 2.011c1.586 2.346 5.04 2.346 6.626 0l-1.656-1.12a2 2 0 01-3.314 0l-1.656 1.12zm-3.018-2.891c.664 0 1.285.33 1.657.88l1.657-1.121a4.001 4.001 0 00-3.314-1.759v2zm-40.669-4a4 4 0 004 4v-2a2 2 0 01-2-2h-2zM559 301a2 2 0 012 2h2a4 4 0 00-4-4v2zm-86-2a4 4 0 00-4 4h2a2 2 0 012-2v-2z" fill="#D8E0F7" mask="url(#path-32-inside-3)"/><path d="M499 333.25c0-9.527 7.668-17.25 17.128-17.25 1.743 0 3.426.262 5.011.75" stroke="#5F82FF" stroke-width="4" stroke-linecap="round" stroke-linejoin="round"/><path fill-rule="evenodd" clip-rule="evenodd" d="M512.442 336.962a5.185 5.185 0 007.372 0c2.035-2.05 10.462-16.462 9.718-17.212-.745-.75-15.055 7.737-17.09 9.788a5.275 5.275 0 000 7.424zm3.685-2.212c.823 0 1.49-.672 1.49-1.5s-.667-1.5-1.49-1.5c-.822 0-1.489.672-1.489 1.5s.667 1.5 1.489 1.5z" fill="#5F82FF"/><ellipse cx="501.234" cy="342.25" rx="1.489" ry="1.5" fill="#5F82FF"/><ellipse cx="507.191" cy="348.25" rx="1.489" ry="1.5" fill="#5F82FF"/><ellipse cx="516.128" cy="350.5" rx="1.489" ry="1.5" fill="#5F82FF"/><ellipse cx="525.064" cy="348.25" rx="1.489" ry="1.5" fill="#5F82FF"/><ellipse cx="530.277" cy="342.25" rx="1.489" ry="1.5" fill="#5F82FF"/><ellipse cx="532.511" cy="333.25" rx="1.489" ry="1.5" fill="#5F82FF"/><filter id="filter5_d" x="440" y="280" width="152" height="127.911" filterUnits="userSpaceOnUse" color-interpolation-filters="sRGB"><feFlood flood-opacity="0" result="BackgroundImageFix"/><feColorMatrix in="SourceAlpha" values="0 0 0 0 0 0 0 0 0 0 0 0 0 0 0 0 0 0 127 0" result="hardAlpha"/><feOffset dy="10"/><feGaussianBlur stdDeviation="15"/><feColorMatrix values="0 0 0 0 0.894415 0 0 0 0 0.918495 0 0 0 0 0.984716 0 0 0 1 0"/><feBlend in2="BackgroundImageFix" result="effect1_dropShadow"/><feBlend in="SourceGraphic" in2="effect1_dropShadow" result="shape"/></filter></g></symbol><symbol id="point4" viewBox="0 0 1440 465"><g class="diagram__point4" filter="url(#filter6_d)"><circle cx="107.5" cy="419.5" r="7.5" fill="#fff"/><circle cx="107.5" cy="419.5" r="6.5" stroke="#5E80FE" stroke-width="2"/></g><filter id="filter6_d" x="85" y="397" width="45" height="45" filterUnits="userSpaceOnUse" color-interpolation-filters="sRGB"><feFlood flood-opacity="0" result="BackgroundImageFix"/><feColorMatrix in="SourceAlpha" values="0 0 0 0 0 0 0 0 0 0 0 0 0 0 0 0 0 0 127 0" result="hardAlpha"/><feOffset/><feGaussianBlur stdDeviation="7.5"/><feColorMatrix values="0 0 0 0 0.323144 0 0 0 0 0.512664 0 0 0 0 1 0 0 0 0.25 0"/><feBlend in2="BackgroundImageFix" result="effect1_dropShadow"/><feBlend in="SourceGraphic" in2="effect1_dropShadow" result="shape"/></filter></symbol><symbol id="baloon4" viewBox="0 0 1440 465"><g filter="url(#filter7_d)"><mask id="path-45-inside-4" fill="#fff"><path fill-rule="evenodd" clip-rule="evenodd" d="M154 333a3 3 0 00-3-3H65a3 3 0 00-3 3v57.26a3 3 0 003 3h36.669a3 3 0 012.485 1.319l1.361 2.012c1.19 1.759 3.78 1.759 4.97 0l1.361-2.012a3 3 0 012.485-1.319H151a3 3 0 003-3V333z"/></mask><path fill-rule="evenodd" clip-rule="evenodd" d="M154 333a3 3 0 00-3-3H65a3 3 0 00-3 3v57.26a3 3 0 003 3h36.669a3 3 0 012.485 1.319l1.361 2.012c1.19 1.759 3.78 1.759 4.97 0l1.361-2.012a3 3 0 012.485-1.319H151a3 3 0 003-3V333z" fill="#fff"/><path d="M111.846 394.579l-.829-.56.829.56zm-6.331 2.012l.828-.56-.828.56zm4.97 0l.828.56-.828-.56zM65 331h86v-2H65v2zm-2 59.26V333h-2v57.26h2zm38.669 2H65v2h36.669v-2zm4.674 3.771l-1.36-2.012-1.657 1.121 1.361 2.011 1.656-1.12zm4.674-2.012l-1.36 2.012 1.656 1.12 1.361-2.011-1.657-1.121zM151 392.26h-36.669v2H151v-2zm2-59.26v57.26h2V333h-2zm-2 61.26a4 4 0 004-4h-2a2 2 0 01-2 2v2zm-38.326.88c.372-.55.993-.88 1.657-.88v-2c-1.328 0-2.57.659-3.314 1.759l1.657 1.121zm-7.987 2.011c1.586 2.346 5.04 2.346 6.626 0l-1.656-1.12a2 2 0 01-3.314 0l-1.656 1.12zm-3.018-2.891c.664 0 1.285.33 1.657.88l1.657-1.121a4.001 4.001 0 00-3.314-1.759v2zm-40.669-4a4 4 0 004 4v-2a2 2 0 01-2-2h-2zM151 331a2 2 0 012 2h2a4 4 0 00-4-4v2zm-86-2a4 4 0 00-4 4h2a2 2 0 012-2v-2z" fill="#D8E0F7" mask="url(#path-45-inside-4)"/><path d="M91 363.25c0-9.527 7.668-17.25 17.128-17.25 1.743 0 3.426.262 5.011.75" stroke="#5F82FF" stroke-width="4" stroke-linecap="round" stroke-linejoin="round"/><path fill-rule="evenodd" clip-rule="evenodd" d="M104.442 366.962a5.185 5.185 0 007.372 0c2.035-2.05 10.462-16.462 9.718-17.212-.745-.75-15.055 7.737-17.09 9.788a5.275 5.275 0 000 7.424zm3.686-2.212c.822 0 1.489-.672 1.489-1.5s-.667-1.5-1.489-1.5c-.823 0-1.49.672-1.49 1.5s.667 1.5 1.49 1.5z" fill="#5F82FF"/><ellipse cx="93.234" cy="372.25" rx="1.489" ry="1.5" fill="#5F82FF"/><ellipse cx="99.192" cy="378.25" rx="1.489" ry="1.5" fill="#5F82FF"/><ellipse cx="108.128" cy="380.5" rx="1.489" ry="1.5" fill="#5F82FF"/><ellipse cx="117.064" cy="378.25" rx="1.489" ry="1.5" fill="#5F82FF"/><ellipse cx="122.277" cy="372.25" rx="1.489" ry="1.5" fill="#5F82FF"/><ellipse cx="124.511" cy="363.25" rx="1.489" ry="1.5" fill="#5F82FF"/><filter id="filter7_d" x="32" y="310" width="152" height="127.911" filterUnits="userSpaceOnUse" color-interpolation-filters="sRGB"><feFlood flood-opacity="0" result="BackgroundImageFix"/><feColorMatrix in="SourceAlpha" values="0 0 0 0 0 0 0 0 0 0 0 0 0 0 0 0 0 0 127 0" result="hardAlpha"/><feOffset dy="10"/><feGaussianBlur stdDeviation="15"/><feColorMatrix values="0 0 0 0 0.894415 0 0 0 0 0.918495 0 0 0 0 0.984716 0 0 0 1 0"/><feBlend in2="BackgroundImageFix" result="effect1_dropShadow"/><feBlend in="SourceGraphic" in2="effect1_dropShadow" result="shape"/></filter></g></symbol></svg>