<svg xmlns="http://www.w3.org/2000/svg">

<symbol id="facebook" viewBox="0 0 9 17">
    <path d="M5.65597 17V9.24548H8.22501L8.60969 6.2234H5.65597V4.294C5.65597 3.41904 5.89578 2.82278 7.13417 2.82278L8.71368 2.82208V0.119112C8.44051 0.0822826 7.5029 -1.65981e-08 6.41206 -1.65981e-08C4.13475 -1.65981e-08 2.57564 1.40836 2.57564 3.9947V6.2234H-2.3404e-08V9.24548H2.57564V17H5.65597Z"/>
</symbol>

<symbol id="telegram" viewBox="0 0 15 13">
    <path d="M5.81972 12.0232C5.38191 12.0232 5.4563 11.8651 5.3053 11.4664L4.01782 7.41344L13.9283 1.78983" />
    <path d="M5.81982 12.0232C6.15768 12.0232 6.30696 11.8754 6.49554 11.7L8.29744 10.0241L6.04979 8.72772"/>
    <path d="M6.04945 8.72806L11.4957 12.5768C12.1172 12.9048 12.5657 12.735 12.7205 12.0249L14.9374 2.03246C15.1644 1.16206 14.5906 0.76729 13.996 1.02547L0.978404 5.82666C0.0898302 6.16756 0.0950105 6.64173 0.816436 6.85301L4.15705 7.85032L11.8909 3.18335C12.256 2.97158 12.5911 3.08543 12.3161 3.31891"/>
</symbol>

<symbol id="twitter" viewBox="0 0 26 22">
    <path fill-rule="evenodd" clip-rule="evenodd" d="M21.0328 1.84041C20.4253 2.11761 19.7726 2.30417 19.0877 2.38898C19.7868 1.95807 20.3239 1.27594 20.5767 0.46342C19.9222 0.862259 19.1973 1.15191 18.4257 1.308C17.8081 0.631966 16.9276 0.210602 15.9535 0.210602C14.0832 0.210602 12.5663 1.76886 12.5663 3.69017C12.5663 3.96313 12.596 4.22867 12.654 4.48334C9.83853 4.33759 7.3424 2.95159 5.67204 0.847419C5.38053 1.36154 5.2135 1.95887 5.2135 2.59648C5.2135 3.80359 5.81147 4.86853 6.72005 5.49303C6.16541 5.47448 5.64276 5.31812 5.18615 5.05709V5.10081C5.18615 6.7876 6.35476 8.19347 7.90258 8.51347C7.61882 8.59297 7.31957 8.63537 7.01181 8.63537C6.79357 8.63537 6.581 8.61417 6.37462 8.5731C6.80543 9.95591 8.05659 10.9619 9.53864 10.99C8.37931 11.9228 6.91868 12.4793 5.33113 12.4793C5.05768 12.4793 4.78862 12.4634 4.52368 12.4308C6.02249 13.4183 7.80327 13.9944 9.71599 13.9944C15.946 13.9944 19.3531 8.69155 19.3531 4.09365C19.3531 3.94259 19.3498 3.79286 19.3433 3.64313C20.0053 3.15286 20.5798 2.53937 21.0338 1.84107" />
</symbol>

<symbol id="medium" viewBox="0 0 17 14">
    <path d="M17.0001 2.10651H16.3472C16.1047 2.10651 15.7619 2.45072 15.7619 2.67109V10.6583C15.7619 10.8789 16.1047 11.1796 16.3472 11.1796H17.0001V13.0755H11.084V11.1796H12.3223V2.78361H12.2616L9.36999 13.0755H7.13129L4.277 2.78361H4.20477V11.1796H5.44303V13.0755H0.48999V11.1796H1.12422C1.38542 11.1796 1.72825 10.8789 1.72825 10.6583V2.67109C1.72825 2.45072 1.38542 2.10651 1.12422 2.10651H0.48999V0.210635H6.68355L8.717 7.65872H8.77295L10.8252 0.210635H17.0001V2.10651Z" />
</symbol>


</svg>